<?xml version="1.0" encoding="UTF-8"?>
<svg version="1.1" xmlns="http://www.w3.org/2000/svg" width="1080" height="1080">
<path d="M0 0 C9.44774822 7.79723799 12.18747086 20.46429472 13.625 32.1875 C14.00677459 38.66864267 13.93138978 45.17041017 13.92578125 51.66015625 C13.92967842 53.55187573 13.93401515 55.44359436 13.93876648 57.33531189 C13.94619721 61.28989503 13.94596171 65.24438886 13.94067383 69.19897461 C13.93490322 74.21575912 13.9517673 79.23217153 13.9750185 84.24889469 C13.98990462 88.15535039 13.99060722 92.06171973 13.98750877 95.96819878 C13.98801521 97.81498383 13.99312225 99.66177461 14.00332069 101.50853157 C14.1855827 139.14324487 14.1855827 139.14324487 1.6484375 152.39453125 C-6.27286474 159.41360022 -15.0542371 160.38768721 -25.375 160.1875 C-32.08651258 159.59845767 -36.64422167 157.60232058 -42.375 154.1875 C-42.36976318 154.99380859 -42.36452637 155.80011719 -42.35913086 156.63085938 C-42.33822638 160.31639819 -42.32529714 164.00192448 -42.3125 167.6875 C-42.30412109 168.9559375 -42.29574219 170.224375 -42.28710938 171.53125 C-42.28388672 172.76875 -42.28066406 174.00625 -42.27734375 175.28125 C-42.27210693 176.41240234 -42.26687012 177.54355469 -42.26147461 178.70898438 C-42.38844251 182.59939007 -42.84151581 186.3331229 -43.375 190.1875 C-48.75015933 190.21217759 -54.12528585 190.23034928 -59.50048828 190.24243164 C-61.32992121 190.24746737 -63.15935009 190.25429627 -64.98876953 190.26293945 C-67.61491898 190.27503824 -70.24101532 190.28073583 -72.8671875 190.28515625 C-73.68806854 190.29031754 -74.50894958 190.29547882 -75.35470581 190.30079651 C-81.14725659 190.30137171 -81.14725659 190.30137171 -83.375 189.1875 C-83.398326 164.17108167 -83.4159777 139.15466496 -83.42681217 114.13823795 C-83.43197577 102.52355143 -83.43901967 90.90887165 -83.45043945 79.29418945 C-83.46038436 69.17476489 -83.46685296 59.0553452 -83.46908849 48.93591589 C-83.47039593 43.5742202 -83.47348386 38.21253847 -83.48073006 32.85084724 C-83.48748722 27.81045454 -83.48961759 22.77008164 -83.48810768 17.72968483 C-83.48838415 15.87405032 -83.49039106 14.01841519 -83.49420547 12.16278458 C-83.49913799 9.64077056 -83.49799994 7.11883258 -83.49525452 4.59681702 C-83.49816736 3.85266779 -83.5010802 3.10851855 -83.50408131 2.34181935 C-83.48912121 -2.69837879 -83.48912121 -2.69837879 -82.375 -3.8125 C-79.4906618 -3.90115208 -76.63037842 -3.92771296 -73.74609375 -3.91015625 C-72.44974754 -3.90803383 -72.44974754 -3.90803383 -71.12721252 -3.90586853 C-68.35560708 -3.90025239 -65.5840812 -3.88769719 -62.8125 -3.875 C-60.9381522 -3.86998708 -59.06380315 -3.86542381 -57.18945312 -3.86132812 C-52.58460456 -3.85027772 -47.97981579 -3.8330023 -43.375 -3.8125 C-42.715 -2.1625 -42.055 -0.5125 -41.375 1.1875 C-40.323125 0.5378125 -40.323125 0.5378125 -39.25 -0.125 C-26.79996297 -7.43263043 -12.27773882 -8.64661458 0 0 Z M-41.375 30.1875 C-42.65457484 34.24963788 -42.53016004 38.313276 -42.53613281 42.53271484 C-42.54109772 43.37222183 -42.54606262 44.21172882 -42.55117798 45.07667542 C-42.56576886 47.85060448 -42.57259606 50.62447638 -42.578125 53.3984375 C-42.58387846 55.3289083 -42.58963617 57.25937908 -42.59539795 59.18984985 C-42.60589882 63.23659531 -42.61174764 67.28332096 -42.61523438 71.33007812 C-42.62072077 76.51076244 -42.64475581 81.69118417 -42.67320633 86.87178612 C-42.69184509 90.85925051 -42.69703895 94.84665176 -42.69857025 98.83415604 C-42.7015939 100.74389712 -42.70961274 102.65363717 -42.72275543 104.56333542 C-42.73984371 107.23692485 -42.73792907 109.90987394 -42.73144531 112.58349609 C-42.7406601 113.36915451 -42.74987488 114.15481293 -42.7593689 114.96427917 C-42.72323101 119.73039628 -42.10353851 123.10482672 -39.375 127.1875 C-35.97530189 128.5184316 -35.97530189 128.5184316 -32.375 128.1875 C-29.74005771 126.38464475 -28.6390667 125.13738252 -27.78251648 122.05625916 C-27.25413437 118.33665252 -27.22752281 114.66065839 -27.22973633 110.91235352 C-27.22637772 110.09220764 -27.2230191 109.27206177 -27.21955872 108.42706299 C-27.21008155 105.72349522 -27.20810734 103.01998958 -27.20703125 100.31640625 C-27.20381681 98.43220494 -27.2004526 96.54800389 -27.19694519 94.6638031 C-27.1909623 90.71718772 -27.18910447 86.77059421 -27.18969727 82.82397461 C-27.18979893 77.77229146 -27.17613854 72.72074872 -27.15892506 67.66909885 C-27.14779623 63.77857318 -27.14577832 59.88808139 -27.14630699 55.99754143 C-27.14512853 54.13525851 -27.14071423 52.27297468 -27.13297462 50.41070747 C-27.12315541 47.80438568 -27.12606022 45.19836792 -27.13208008 42.59204102 C-27.12646057 41.82665512 -27.12084106 41.06126923 -27.11505127 40.27268982 C-27.14080167 35.87570768 -27.55924377 32.21409761 -29.375 28.1875 C-34.478909 24.784894 -37.61277286 25.35035082 -41.375 30.1875 Z " fill="#213974" transform="translate(567.375,435.8125)"/>
<path d="M0 0 C7.19434259 5.83557014 10.1518576 13.35664018 11.75 22.3125 C12.39978458 29.20396044 12.36264581 36.14659367 12.4375 43.0625 C12.46942213 45.18400649 12.50174362 47.305507 12.53442383 49.42700195 C12.64069115 57.05526394 12.69916 64.68371243 12.75 72.3125 C12.75809692 73.48768314 12.75809692 73.48768314 12.76635742 74.68660736 C12.85084406 87.06133576 12.90226636 99.43594924 12.93033218 111.81092834 C12.93749258 114.4972162 12.94780666 117.18347643 12.95883179 119.86975098 C12.97553204 124.14446132 12.98147415 128.41906262 12.97938538 132.69380379 C12.98009974 134.28403299 12.98417349 135.87426473 12.99183655 137.46447563 C13.00167603 139.66287559 12.99885023 141.86091979 12.99291992 144.05932617 C12.99434494 145.29639816 12.99576996 146.53347015 12.99723816 147.80802917 C12.72776419 151.62768095 11.92335505 154.68255495 10.75 158.3125 C5.65967159 158.33718084 0.56937785 158.35535082 -4.52099609 158.36743164 C-6.25342414 158.37246682 -7.98584792 158.37929532 -9.71826172 158.38793945 C-12.20541433 158.40004065 -14.69251087 158.40573638 -17.1796875 158.41015625 C-17.95682098 158.41531754 -18.73395447 158.42047882 -19.53463745 158.42579651 C-25.02225659 158.42637171 -25.02225659 158.42637171 -27.25 157.3125 C-27.25238835 156.68504348 -27.25477671 156.05758696 -27.25723743 155.4111166 C-27.31642909 140.12847972 -27.39200569 124.84601866 -27.48571491 109.56355953 C-27.53063923 102.17300278 -27.57006158 94.78249386 -27.59643555 87.3918457 C-27.61944296 80.94853071 -27.65287145 74.5053675 -27.69870156 68.06217295 C-27.72259703 64.65199553 -27.74134977 61.24196808 -27.74761391 57.83170891 C-27.75723705 54.02030988 -27.7852769 50.20945786 -27.81762695 46.39819336 C-27.81619186 45.27321945 -27.81475677 44.14824554 -27.8132782 42.98918152 C-27.88477795 37.03247724 -28.23502822 32.51975653 -31.25 27.3125 C-34.63212784 25.92496037 -36.82346324 26.3812968 -40.25 27.3125 C-42.28822268 34.05985313 -42.54338064 40.27382954 -42.53710938 47.29638672 C-42.54735893 49.06359322 -42.54735893 49.06359322 -42.55781555 50.86650085 C-42.57136013 53.4129535 -42.58044121 55.95943301 -42.58552551 58.5059166 C-42.5938309 62.53139852 -42.61406454 66.55665251 -42.63806152 70.58206177 C-42.6910188 79.84427087 -42.7246145 89.10653052 -42.75782013 98.36882782 C-42.78850047 106.87817306 -42.82326167 115.38744646 -42.87413073 123.89669812 C-42.89366305 127.24342882 -42.90889684 130.59007001 -42.91447449 133.93685532 C-42.92187716 137.65966195 -42.94110478 141.38223444 -42.96289062 145.10498047 C-42.96190872 146.21666092 -42.96092682 147.32834137 -42.95991516 148.47370911 C-42.96818832 149.4830098 -42.97646149 150.49231049 -42.98498535 151.53219604 C-42.98938503 152.85228826 -42.98938503 152.85228826 -42.9938736 154.199049 C-43.25 156.3125 -43.25 156.3125 -45.25 158.3125 C-48.03510224 158.50003311 -50.71899646 158.56811232 -53.50390625 158.54296875 C-54.31995834 158.54251053 -55.13601044 158.54205231 -55.97679138 158.5415802 C-57.70255995 158.53855744 -59.42832578 158.53067042 -61.15405273 158.51831055 C-63.80527333 158.50004978 -66.45614496 158.49780086 -69.10742188 158.49804688 C-70.78125304 158.49313194 -72.45508182 158.48730373 -74.12890625 158.48046875 C-74.92680069 158.47935593 -75.72469513 158.4782431 -76.54676819 158.47709656 C-82.13395099 158.42854901 -82.13395099 158.42854901 -83.25 157.3125 C-83.34683581 155.23689194 -83.37186902 153.15792796 -83.37025452 151.08006287 C-83.37110894 150.42175651 -83.37196337 149.76345016 -83.37284368 149.08519512 C-83.3745003 146.86332894 -83.36897418 144.64153705 -83.36352539 142.41967773 C-83.36324353 140.83334352 -83.36340123 139.24700918 -83.3639679 137.66067505 C-83.36425592 133.34061278 -83.35835837 129.02057803 -83.35139394 124.70052218 C-83.34516125 120.19081685 -83.34455667 115.68111095 -83.34336853 111.17140198 C-83.34025496 102.62555626 -83.33204124 94.07972326 -83.32201904 85.53388315 C-83.31085869 75.80732367 -83.30534765 66.08076358 -83.30032361 56.35419929 C-83.28985864 36.34029084 -83.27151285 16.32639984 -83.25 -3.6875 C-70.38 -3.6875 -57.51 -3.6875 -44.25 -3.6875 C-43.10185003 -1.39120006 -42.94230191 0.38948086 -42.6875 2.9375 C-42.60371094 3.75476563 -42.51992188 4.57203125 -42.43359375 5.4140625 C-42.37300781 6.04054688 -42.31242188 6.66703125 -42.25 7.3125 C-41.63125 6.3225 -41.0125 5.3325 -40.375 4.3125 C-39.323125 2.8275 -39.323125 2.8275 -38.25 1.3125 C-37.59 1.3125 -36.93 1.3125 -36.25 1.3125 C-36.25 0.6525 -36.25 -0.0075 -36.25 -0.6875 C-24.62938256 -7.75101256 -11.40775653 -7.82550775 0 0 Z " fill="#213974" transform="translate(726.25,435.6875)"/>
<path d="M0 0 C1.9375 1.59765625 1.9375 1.59765625 4.6875 4.41015625 C4.6875 5.07015625 4.6875 5.73015625 4.6875 6.41015625 C5.6775 6.74015625 6.6675 7.07015625 7.6875 7.41015625 C9.2578125 9.9921875 9.2578125 9.9921875 10.8125 13.22265625 C11.33070313 14.28097656 11.84890625 15.33929688 12.3828125 16.4296875 C14.26952374 20.7397494 14.81263862 24.15468178 14.81448364 28.85771179 C14.81871338 30.51717331 14.81871338 30.51717331 14.82302856 32.2101593 C14.81999222 34.0236512 14.81999222 34.0236512 14.81689453 35.8737793 C14.81952301 37.78882263 14.81952301 37.78882263 14.82220459 39.74255371 C14.82676098 43.24021599 14.82499709 46.73784875 14.8218255 50.23551154 C14.81929429 53.89323999 14.82164142 57.55096591 14.82321167 61.20869446 C14.82503044 67.34787449 14.82263398 73.48704249 14.81787109 79.6262207 C14.81242177 86.73243982 14.81419716 93.83863028 14.8196975 100.94484872 C14.82422829 107.0417123 14.82487957 113.13856724 14.82225883 119.23543197 C14.8206968 122.87896655 14.82050042 126.52248763 14.82379532 130.16602135 C14.8272074 134.22227059 14.82248492 138.27846998 14.81689453 142.3347168 C14.81891876 143.54978409 14.82094299 144.76485138 14.82302856 146.01673889 C14.82020874 147.1145871 14.81738892 148.2124353 14.81448364 149.34355164 C14.8139181 150.78343461 14.8139181 150.78343461 14.81334114 152.25240612 C14.6875 154.41015625 14.6875 154.41015625 13.6875 155.41015625 C10.8758662 155.49877617 8.08891745 155.5253798 5.27734375 155.5078125 C4.43530899 155.50639755 3.59327423 155.5049826 2.72572327 155.50352478 C0.02544665 155.49790888 -2.67474828 155.48535373 -5.375 155.47265625 C-7.20117068 155.4676433 -9.02734266 155.46308004 -10.85351562 155.45898438 C-15.33987542 155.44793429 -19.82617384 155.43065904 -24.3125 155.41015625 C-25.27042977 151.77163311 -25.81050802 148.13923956 -26.3125 144.41015625 C-26.74820313 144.94125 -27.18390625 145.47234375 -27.6328125 146.01953125 C-32.46044668 151.74581595 -36.65431251 156.20156324 -44.3125 157.41015625 C-53.7191762 158.15128831 -61.35390399 157.1975301 -68.6875 150.97265625 C-77.98521497 142.42105421 -80.8054324 130.25950038 -81.43798828 117.97265625 C-82.05646031 100.86677672 -81.84909653 82.91752852 -70.0625 69.28515625 C-60.24466031 60.1816743 -38.66362509 50.41015625 -25.3125 50.41015625 C-25.40005429 47.38802371 -25.50701063 44.36862944 -25.625 41.34765625 C-25.65883789 40.07631836 -25.65883789 40.07631836 -25.69335938 38.77929688 C-25.92498309 33.32561111 -26.59457486 29.19169122 -29.3125 24.41015625 C-32.87142288 22.8796964 -32.87142288 22.8796964 -36.3125 22.41015625 C-36.3125 23.07015625 -36.3125 23.73015625 -36.3125 24.41015625 C-36.9725 24.41015625 -37.6325 24.41015625 -38.3125 24.41015625 C-38.9725 30.35015625 -39.6325 36.29015625 -40.3125 42.41015625 C-52.8525 42.41015625 -65.3925 42.41015625 -78.3125 42.41015625 C-78.3125 12.92235137 -78.3125 12.92235137 -67.87109375 1.88671875 C-51.01214719 -13.272552 -18.01786446 -12.38728182 0 0 Z M-33.3125 74.41015625 C-40.45764358 81.55529983 -40.56610819 88.3452274 -40.5859375 97.9921875 C-40.57820313 99.28511719 -40.57046875 100.57804688 -40.5625 101.91015625 C-40.57023437 103.20308594 -40.57796875 104.49601563 -40.5859375 105.828125 C-40.66991941 114.83796088 -40.66991941 114.83796088 -38.3125 123.41015625 C-34.83898925 125.72583009 -33.39850528 126.00603202 -29.3125 125.41015625 C-24.19878847 119.59110519 -25.17210441 110.84740579 -25.21484375 103.5390625 C-25.21696617 102.15556862 -25.21696617 102.15556862 -25.21913147 100.74412537 C-25.22469494 97.82026827 -25.23724058 94.8964899 -25.25 91.97265625 C-25.25501972 89.9811209 -25.2595818 87.98958435 -25.26367188 85.99804688 C-25.27465238 81.13538669 -25.29189161 76.27278478 -25.3125 71.41015625 C-28.53916368 71.41015625 -30.55452995 72.78782093 -33.3125 74.41015625 Z " fill="#213873" transform="translate(456.3125,438.58984375)"/>
<path d="M0 0 C4.94791294 -0.0246826 9.8957902 -0.04285166 14.84375 -0.05493164 C16.52767562 -0.05996653 18.21159686 -0.06679481 19.89550781 -0.07543945 C22.31316203 -0.08754196 24.73075856 -0.09323668 27.1484375 -0.09765625 C27.9036972 -0.10281754 28.65895691 -0.10797882 29.43710327 -0.11329651 C34.77225659 -0.11387171 34.77225659 -0.11387171 37 1 C38.42013531 8.34948959 38.17367158 15.85138652 38.20532227 23.31054688 C38.21491548 24.75013501 38.22492638 26.18972041 38.23532104 27.62930298 C38.26221995 31.51711743 38.28331022 35.40494382 38.30332303 39.292799 C38.32527586 43.36339336 38.35261882 47.43395152 38.37937927 51.5045166 C38.42918101 59.2036616 38.47416598 66.90282684 38.51740164 74.6020112 C38.56688139 83.37109853 38.62175951 92.14014951 38.67708123 100.90920162 C38.79070895 118.93943543 38.89687689 136.96970284 39 155 C56.82 155.495 56.82 155.495 75 156 C76.55575434 161.44514018 77.24383108 164.05710966 77.01171875 169.3359375 C76.96466797 170.48191406 76.91761719 171.62789062 76.86914062 172.80859375 C76.80919922 173.98550781 76.74925781 175.16242188 76.6875 176.375 C76.63916016 177.57511719 76.59082031 178.77523437 76.54101562 180.01171875 C76.14544124 188.85455876 76.14544124 188.85455876 75 190 C72.65746218 190.09492722 70.34453896 190.12559791 68.00170898 190.11352539 C66.90421326 190.11374443 66.90421326 190.11374443 65.7845459 190.1139679 C63.35503216 190.11326867 60.92559417 190.10547585 58.49609375 190.09765625 C56.81600486 190.0957921 55.13591543 190.09436819 53.45582581 190.09336853 C49.02526357 190.08954307 44.5947339 190.07971256 40.16418457 190.06866455 C35.64657024 190.05845103 31.12895066 190.05387104 26.61132812 190.04882812 C17.74087107 190.03809031 8.87043824 190.02101356 0 190 C-1.6314554 184.98169511 -2.25087498 180.76421697 -2.25396729 175.43429565 C-2.25864726 174.34030746 -2.25864726 174.34030746 -2.26342177 173.22421849 C-2.27135401 170.79766978 -2.26509699 168.37137448 -2.25878906 165.94482422 C-2.261501 164.19823053 -2.26506307 162.45163799 -2.26940918 160.70504761 C-2.27850995 155.97384369 -2.27499882 151.24272722 -2.26865101 146.51152182 C-2.26358067 141.55708681 -2.26828519 136.60265919 -2.27142334 131.64822388 C-2.27505928 123.33106138 -2.27027292 115.01393444 -2.26074219 106.69677734 C-2.2498512 97.08153561 -2.25338939 87.46637864 -2.264395 77.85113895 C-2.27346992 69.5919573 -2.27475236 61.33280117 -2.26951766 53.07361615 C-2.26640002 48.14225253 -2.26598315 43.21092877 -2.27259064 38.27956772 C-2.27836668 33.64531863 -2.27436244 29.01117895 -2.26280212 24.37694168 C-2.26015724 22.67617728 -2.26091771 20.97540368 -2.26532745 19.27464294 C-2.27079092 16.95354992 -2.26393925 14.63280773 -2.25396729 12.31173706 C-2.25321323 11.01280455 -2.25245918 9.71387203 -2.25168228 8.37557793 C-2.01027897 5.13786217 -1.39935166 2.90500952 0 0 Z " fill="#213974" transform="translate(294,404)"/>
<path d="M0 0 C4.78718692 -0.02471738 9.5743367 -0.04286825 14.36157227 -0.05493164 C15.99015958 -0.05996065 17.61874237 -0.06678465 19.24731445 -0.07543945 C21.58806472 -0.08756769 23.9287553 -0.09324263 26.26953125 -0.09765625 C26.99775589 -0.10281754 27.72598053 -0.10797882 28.47627258 -0.11329651 C31.59602288 -0.11364279 34.01633188 0.00544396 37 1 C37.17734203 24.60887963 37.34300631 48.21781623 37.49477577 71.82687473 C37.56551737 82.78900821 37.64007746 93.75109085 37.72363281 104.71313477 C37.79645141 114.26784226 37.86209944 123.82256753 37.91914403 133.3773827 C37.94959778 138.43638843 37.98363722 143.49531262 38.02626419 148.55423164 C38.06628406 153.31719006 38.09670569 158.08011396 38.11981392 162.84318352 C38.12997138 164.58989242 38.14361485 166.33658513 38.16103554 168.08323669 C38.18433256 170.47181052 38.19497379 172.86012642 38.20254517 175.24879456 C38.21712011 176.28043861 38.21712011 176.28043861 38.2319895 177.33292395 C38.22828394 182.14720421 37.39629811 185.11295662 36 190 C24.12 190 12.24 190 0 190 C-1.49003475 187.0199305 -1.13715584 183.97906497 -1.12698364 180.71166992 C-1.12854363 179.95183146 -1.13010362 179.19199301 -1.13171089 178.40912914 C-1.13571638 175.84955626 -1.13253297 173.29004213 -1.12939453 170.73046875 C-1.13074877 168.90092941 -1.13252883 167.07139035 -1.13470459 165.24185181 C-1.13927621 160.26264914 -1.13749047 155.28346711 -1.1343255 150.30426407 C-1.13180051 145.10282585 -1.13413983 139.90138945 -1.13571167 134.69995117 C-1.13753296 125.96370119 -1.13512812 117.22745964 -1.13037109 108.49121094 C-1.12492855 98.37900332 -1.12669124 88.26681586 -1.1321975 78.15460873 C-1.13672979 69.48539272 -1.13737861 60.81618279 -1.13475883 52.14696598 C-1.1331967 46.96356437 -1.13300056 41.78017225 -1.13629532 36.59677124 C-1.1391757 31.72460355 -1.13719523 26.85246195 -1.13140106 21.98029709 C-1.13007437 20.18797219 -1.13046605 18.39564512 -1.13266373 16.60332108 C-1.13537876 14.1649607 -1.13198972 11.72668499 -1.12698364 9.28833008 C-1.12921436 8.57180362 -1.13144509 7.85527716 -1.13374341 7.11703777 C-1.11415009 2.22830018 -1.11415009 2.22830018 0 0 Z " fill="#213973" transform="translate(593,404)"/>
<path d="M0 0 C0.82290527 0.00202423 1.64581055 0.00404846 2.49365234 0.00613403 C3.33331543 0.00517731 4.17297852 0.00422058 5.03808594 0.00323486 C6.81689529 0.00255306 8.59570712 0.00440737 10.37451172 0.00857544 C13.10699011 0.01392371 15.83930411 0.00863048 18.57177734 0.00222778 C20.29573604 0.00288856 22.01969464 0.00416973 23.74365234 0.00613403 C24.56655762 0.0041098 25.38946289 0.00208557 26.23730469 0 C32.0037018 0.02399599 32.0037018 0.02399599 33.11865234 1.13894653 C33.21943354 3.50293122 33.2583845 5.83705964 33.25146484 8.20144653 C33.25242157 8.90793335 33.2533783 9.61442017 33.25436401 10.34231567 C33.25504567 11.83865447 33.25319239 13.3349962 33.24902344 14.83132935 C33.24367492 17.1292481 33.24896885 19.42697139 33.25537109 21.72488403 C33.25471031 23.1754053 33.25342914 24.62592645 33.25146484 26.07644653 C33.25348907 26.76810913 33.25551331 27.45977173 33.25759888 28.1723938 C33.23360458 33.0239943 33.23360458 33.0239943 32.11865234 34.13894653 C29.40309007 34.23996766 26.71350696 34.2786493 23.99755859 34.27175903 C22.77491554 34.27319412 22.77491554 34.27319412 21.52757263 34.2746582 C19.80003787 34.27534006 18.07250057 34.27348537 16.3449707 34.26931763 C13.69590506 34.26397628 11.0470095 34.26925885 8.39794922 34.27566528 C6.72281863 34.27500437 5.04768816 34.27372293 3.37255859 34.27175903 C2.17875328 34.27479538 2.17875328 34.27479538 0.96083069 34.27789307 C-4.65143677 34.25390197 -4.65143677 34.25390197 -6.88134766 33.13894653 C-6.90600158 28.59996948 -6.92418554 24.0610311 -6.9362793 19.52200317 C-6.94131905 17.97674888 -6.94815085 16.43149937 -6.95678711 14.88626099 C-6.96886842 12.66969625 -6.97457938 10.45319435 -6.97900391 8.23660278 C-6.98416519 7.54180313 -6.98932648 6.84700348 -6.99464417 6.13114929 C-6.99484042 4.46665323 -6.94323894 2.80229155 -6.88134766 1.13894653 C-5.03858257 -0.70381855 -2.45171007 0.01020242 0 0 Z " fill="#213973" transform="translate(756.88134765625,559.8610534667969)"/>
<path d="M0 0 C1.64510941 0.00015915 3.29022379 0.00585551 4.93530273 0.01586914 C6.23164894 0.01799156 6.23164894 0.01799156 7.55418396 0.02015686 C10.32578941 0.025773 13.09731528 0.0383282 15.86889648 0.05102539 C17.74324428 0.05603831 19.61759334 0.06060158 21.49194336 0.06469727 C26.09679192 0.07574767 30.70158069 0.09302309 35.30639648 0.11352539 C35.80139648 2.58852539 35.80139648 2.58852539 36.30639648 5.11352539 C35.64639648 4.78352539 34.98639648 4.45352539 34.30639648 4.11352539 C34.30639648 3.45352539 34.30639648 2.79352539 34.30639648 2.11352539 C22.09639648 2.11352539 9.88639648 2.11352539 -2.69360352 2.11352539 C-2.69360352 64.81352539 -2.69360352 127.51352539 -2.69360352 192.11352539 C9.51639648 192.11352539 21.72639648 192.11352539 34.30639648 192.11352539 C34.30639648 180.56352539 34.30639648 169.01352539 34.30639648 157.11352539 C38.30639648 156.11352539 38.30639648 156.11352539 39.99780273 156.89086914 C40.61526367 157.2737207 41.23272461 157.65657227 41.86889648 158.05102539 C46.817779 160.42253648 51.41779852 160.53484028 56.80639648 160.55102539 C57.60118408 160.56061279 58.39597168 160.5702002 59.21484375 160.58007812 C66.43231941 160.47982509 72.99688331 158.65282123 79.30639648 155.11352539 C80.43155733 153.28068096 80.43155733 153.28068096 81.30639648 151.11352539 C82.0121582 150.06551758 82.0121582 150.06551758 82.73217773 148.99633789 C84.72374089 145.34925697 85.5571519 141.84003538 86.43139648 137.80102539 C86.60026367 137.09913086 86.76913086 136.39723633 86.94311523 135.67407227 C89.77824271 122.89367477 89.46739268 109.33229668 89.47436523 96.30883789 C89.47759553 94.85024995 89.48096077 93.3916623 89.48445129 91.93307495 C89.49037333 88.90288544 89.49229832 85.87272416 89.49169922 82.8425293 C89.49161788 79.77671418 89.49858386 76.71104826 89.51220703 73.64526367 C89.66407957 49.80925444 89.66407957 49.80925444 87.30639648 26.11352539 C86.97280111 23.78022951 86.63938915 21.44690737 86.30639648 19.11352539 C90.16743919 21.68755386 90.06612365 23.02198053 90.96899414 27.49707031 C92.77590853 36.95596001 92.7417622 46.37949613 92.70483398 55.97680664 C92.70686216 57.86280937 92.70977972 59.74881132 92.71353149 61.6348114 C92.7179232 65.56553702 92.71162874 69.49605642 92.69750977 73.42675781 C92.68045558 78.41206281 92.69025559 83.39688169 92.70822716 88.38216877 C92.71918152 92.27147436 92.71556533 96.16066891 92.70784378 100.04997826 C92.70587192 101.88559212 92.70819219 103.72121678 92.71528244 105.55681801 C92.8285235 143.10991646 92.8285235 143.10991646 80.32983398 156.32055664 C72.40853175 163.33962561 63.62715939 164.3137126 53.30639648 164.11352539 C46.5948839 163.52448306 42.03717482 161.52834597 36.30639648 158.11352539 C36.3116333 158.91983398 36.31687012 159.72614258 36.32226562 160.55688477 C36.3431701 164.24242358 36.35609935 167.92794987 36.36889648 171.61352539 C36.37727539 172.88196289 36.3856543 174.15040039 36.39428711 175.45727539 C36.39750977 176.69477539 36.40073242 177.93227539 36.40405273 179.20727539 C36.40928955 180.33842773 36.41452637 181.46958008 36.41992188 182.63500977 C36.29295397 186.52541546 35.83988067 190.25914829 35.30639648 194.11352539 C29.93123715 194.13820298 24.55611063 194.15637467 19.1809082 194.16845703 C17.35147528 194.17349276 15.52204639 194.18032166 13.69262695 194.18896484 C11.06647751 194.20106364 8.44038117 194.20676122 5.81420898 194.21118164 C4.99332794 194.21634293 4.1724469 194.22150421 3.32669067 194.2268219 C-2.4658601 194.2273971 -2.4658601 194.2273971 -4.69360352 193.11352539 C-4.71692951 168.09710706 -4.73458122 143.08069035 -4.74541569 118.06426334 C-4.75057928 106.44957682 -4.75762319 94.83489704 -4.76904297 83.22021484 C-4.77898787 73.10079028 -4.78545648 62.98137059 -4.78769201 52.86194128 C-4.78899945 47.50024559 -4.79208738 42.13856386 -4.79933357 36.77687263 C-4.80609074 31.73647993 -4.8082211 26.69610703 -4.8067112 21.65571022 C-4.80698766 19.80007571 -4.80899458 17.94444058 -4.81280899 16.08880997 C-4.8177415 13.56679595 -4.81660346 11.04485797 -4.81385803 8.52284241 C-4.81677087 7.77869318 -4.81968372 7.03454394 -4.82268482 6.26784474 C-4.80451919 0.14767013 -4.80451919 0.14767013 0 0 Z " fill="#142350" transform="translate(488.693603515625,431.886474609375)"/>
<path d="M0 0 C4.94791294 -0.0246826 9.8957902 -0.04285166 14.84375 -0.05493164 C16.52767562 -0.05996653 18.21159686 -0.06679481 19.89550781 -0.07543945 C22.31316203 -0.08754196 24.73075856 -0.09323668 27.1484375 -0.09765625 C27.9036972 -0.10281754 28.65895691 -0.10797882 29.43710327 -0.11329651 C34.77225659 -0.11387171 34.77225659 -0.11387171 37 1 C38.42013531 8.34948959 38.17367158 15.85138652 38.20532227 23.31054688 C38.21491548 24.75013501 38.22492638 26.18972041 38.23532104 27.62930298 C38.26221995 31.51711743 38.28331022 35.40494382 38.30332303 39.292799 C38.32527586 43.36339336 38.35261882 47.43395152 38.37937927 51.5045166 C38.42918101 59.2036616 38.47416598 66.90282684 38.51740164 74.6020112 C38.56688139 83.37109853 38.62175951 92.14014951 38.67708123 100.90920162 C38.79070895 118.93943543 38.89687689 136.96970284 39 155 C56.82 155.495 56.82 155.495 75 156 C74.67 157.32 74.34 158.64 74 160 C74 159.34 74 158.68 74 158 C72.88439697 158.00523682 71.76879395 158.01047363 70.61938477 158.01586914 C66.49520667 158.03391775 62.37103209 158.04543149 58.24682617 158.05493164 C56.45905979 158.05997218 54.67129755 158.06680454 52.88354492 158.07543945 C50.31948832 158.0875173 47.75548603 158.09323094 45.19140625 158.09765625 C43.98515343 158.10539818 43.98515343 158.10539818 42.75453186 158.11329651 C40.83598285 158.11349215 38.91754632 158.06201983 37 158 C36 157 36 157 35.87695217 154.45625973 C35.87833486 152.74310747 35.87833486 152.74310747 35.87974548 150.99534607 C35.87837082 149.68977753 35.87699615 148.38420898 35.87557983 147.03907776 C35.87911945 145.57870461 35.88275427 144.11833169 35.88647461 142.65795898 C35.88675647 141.13073732 35.88659877 139.60351553 35.8860321 138.07629395 C35.88574409 133.91738312 35.89164145 129.75850089 35.89860606 125.59959674 C35.90483894 121.25805476 35.90544335 116.91651219 35.90663147 112.57496643 C35.90974498 104.34786418 35.91795863 96.12077514 35.92798096 87.89367872 C35.93914149 78.52986936 35.94465239 69.16605938 35.94967639 59.80224502 C35.96014123 40.53482099 35.97848695 21.26741508 36 2 C18.675 2.495 18.675 2.495 1 3 C0.67 64.05 0.34 125.1 0 188 C24.75 188 49.5 188 75 188 C75 188.66 75 189.32 75 190 C50.25 190 25.5 190 0 190 C-1.60703315 184.37538397 -2.25070915 181.05004038 -2.25396729 175.43429565 C-2.25864726 174.34030746 -2.25864726 174.34030746 -2.26342177 173.22421849 C-2.27135401 170.79766978 -2.26509699 168.37137448 -2.25878906 165.94482422 C-2.261501 164.19823053 -2.26506307 162.45163799 -2.26940918 160.70504761 C-2.27850995 155.97384369 -2.27499882 151.24272722 -2.26865101 146.51152182 C-2.26358067 141.55708681 -2.26828519 136.60265919 -2.27142334 131.64822388 C-2.27505928 123.33106138 -2.27027292 115.01393444 -2.26074219 106.69677734 C-2.2498512 97.08153561 -2.25338939 87.46637864 -2.264395 77.85113895 C-2.27346992 69.5919573 -2.27475236 61.33280117 -2.26951766 53.07361615 C-2.26640002 48.14225253 -2.26598315 43.21092877 -2.27259064 38.27956772 C-2.27836668 33.64531863 -2.27436244 29.01117895 -2.26280212 24.37694168 C-2.26015724 22.67617728 -2.26091771 20.97540368 -2.26532745 19.27464294 C-2.27079092 16.95354992 -2.26393925 14.63280773 -2.25396729 12.31173706 C-2.25321323 11.01280455 -2.25245918 9.71387203 -2.25168228 8.37557793 C-2.01027897 5.13786217 -1.39935166 2.90500952 0 0 Z " fill="#0C1653" transform="translate(294,404)"/>
<path d="M0 0 C4.78718692 -0.02471738 9.5743367 -0.04286825 14.36157227 -0.05493164 C15.99015958 -0.05996065 17.61874237 -0.06678465 19.24731445 -0.07543945 C21.58806472 -0.08756769 23.9287553 -0.09324263 26.26953125 -0.09765625 C26.99775589 -0.10281754 27.72598053 -0.10797882 28.47627258 -0.11329651 C31.59602288 -0.11364279 34.01633188 0.00544396 37 1 C37.17734203 24.60887963 37.34300631 48.21781623 37.49477577 71.82687473 C37.56551737 82.78900821 37.64007746 93.75109085 37.72363281 104.71313477 C37.79645141 114.26784226 37.86209944 123.82256753 37.91914403 133.3773827 C37.94959778 138.43638843 37.98363722 143.49531262 38.02626419 148.55423164 C38.06628406 153.31719006 38.09670569 158.08011396 38.11981392 162.84318352 C38.12997138 164.58989242 38.14361485 166.33658513 38.16103554 168.08323669 C38.18433256 170.47181052 38.19497379 172.86012642 38.20254517 175.24879456 C38.21712011 176.28043861 38.21712011 176.28043861 38.2319895 177.33292395 C38.22828394 182.14720421 37.39629811 185.11295662 36 190 C24.12 190 12.24 190 0 190 C-1.49003475 187.0199305 -1.13715584 183.97906497 -1.12698364 180.71166992 C-1.12854363 179.95183146 -1.13010362 179.19199301 -1.13171089 178.40912914 C-1.13571638 175.84955626 -1.13253297 173.29004213 -1.12939453 170.73046875 C-1.13074877 168.90092941 -1.13252883 167.07139035 -1.13470459 165.24185181 C-1.13927621 160.26264914 -1.13749047 155.28346711 -1.1343255 150.30426407 C-1.13180051 145.10282585 -1.13413983 139.90138945 -1.13571167 134.69995117 C-1.13753296 125.96370119 -1.13512812 117.22745964 -1.13037109 108.49121094 C-1.12492855 98.37900332 -1.12669124 88.26681586 -1.1321975 78.15460873 C-1.13672979 69.48539272 -1.13737861 60.81618279 -1.13475883 52.14696598 C-1.1331967 46.96356437 -1.13300056 41.78017225 -1.13629532 36.59677124 C-1.1391757 31.72460355 -1.13719523 26.85246195 -1.13140106 21.98029709 C-1.13007437 20.18797219 -1.13046605 18.39564512 -1.13266373 16.60332108 C-1.13537876 14.1649607 -1.13198972 11.72668499 -1.12698364 9.28833008 C-1.12921436 8.57180362 -1.13144509 7.85527716 -1.13374341 7.11703777 C-1.11415009 2.22830018 -1.11415009 2.22830018 0 0 Z M1 2 C1 63.38 1 124.76 1 188 C12.22 188 23.44 188 35 188 C35 126.62 35 65.24 35 2 C23.78 2 12.56 2 1 2 Z " fill="#1C2958" transform="translate(593,404)"/>
<path d="M0 0 C0.495 1.485 0.495 1.485 1 3 C1.66 3 2.32 3 3 3 C3.8208697 32.83293728 4.1325195 62.66036915 4.18167114 92.50333786 C4.18749889 95.18698693 4.19720822 97.87059641 4.20800781 100.55422974 C4.22467017 104.82971522 4.23089838 109.10509493 4.22919655 113.38061142 C4.23003534 114.9711345 4.23418947 116.56165978 4.24188805 118.15216446 C4.25172184 120.35050186 4.24887732 122.54848246 4.24291992 124.74682617 C4.24434494 125.98389816 4.24576996 127.22097015 4.24723816 128.49552917 C3.97776419 132.31518095 3.17335505 135.37005495 2 139 C-3.09032841 139.02468084 -8.18062215 139.04285082 -13.27099609 139.05493164 C-15.00342414 139.05996682 -16.73584792 139.06679532 -18.46826172 139.07543945 C-20.95541433 139.08754065 -23.44251087 139.09323638 -25.9296875 139.09765625 C-26.70682098 139.10281754 -27.48395447 139.10797882 -28.28463745 139.11329651 C-33.77225659 139.11387171 -33.77225659 139.11387171 -36 138 C-36.00238835 137.37254348 -36.00477671 136.74508696 -36.00723743 136.0986166 C-36.06642909 120.81597972 -36.14200569 105.53351866 -36.23571491 90.25105953 C-36.28063923 82.86050278 -36.32006158 75.46999386 -36.34643555 68.0793457 C-36.36944296 61.63603071 -36.40287145 55.1928675 -36.44870156 48.74967295 C-36.47259703 45.33949553 -36.49134977 41.92946808 -36.49761391 38.51920891 C-36.50723705 34.70780988 -36.5352769 30.89695786 -36.56762695 27.08569336 C-36.56547432 25.3982325 -36.56547432 25.3982325 -36.5632782 23.67668152 C-36.63477795 17.71997724 -36.98502822 13.20725653 -40 8 C-43.20875376 6.6835882 -45.77263579 6.73210692 -49 8 C-49.33 8.66 -49.66 9.32 -50 10 C-50 8.68 -50 7.36 -50 6 C-46.22946872 4.16859909 -44.01387791 3.6620407 -40 5 C-37.2748639 6.4793596 -36.21143168 7.54504176 -34.90090942 10.36502075 C-33.60764224 15.58308068 -33.73882301 20.61600185 -33.77294922 25.97216797 C-33.77265717 27.17273331 -33.77236511 28.37329865 -33.77206421 29.61024475 C-33.7732158 32.8887794 -33.78322115 36.16714158 -33.79721212 39.44564199 C-33.80974553 42.87693114 -33.81089204 46.30822396 -33.81326294 49.73953247 C-33.81947006 56.23111193 -33.83587043 62.72262372 -33.85596192 69.21417344 C-33.87834488 76.60714907 -33.88932037 84.000128 -33.89935279 91.39312911 C-33.92023738 106.59546325 -33.95690397 121.79770956 -34 137 C-22.45 137 -10.9 137 1 137 C0.67 91.79 0.34 46.58 0 0 Z " fill="#1A2556" transform="translate(735,455)"/>
<path d="M0 0 C2.83783533 4.256753 3.12499962 7.39019266 3.12698364 12.44755554 C3.13121338 14.10701706 3.13121338 14.10701706 3.13552856 15.80000305 C3.13249222 17.61349495 3.13249222 17.61349495 3.12939453 19.46362305 C3.13202301 21.37866638 3.13202301 21.37866638 3.13470459 23.33239746 C3.13926098 26.83005974 3.13749709 30.3276925 3.1343255 33.82535529 C3.13179429 37.48308374 3.13414142 41.14080966 3.13571167 44.79853821 C3.13753044 50.93771824 3.13513398 57.07688624 3.13037109 63.21606445 C3.12492177 70.32228357 3.12669716 77.42847403 3.1321975 84.53469247 C3.13672829 90.63155605 3.13737957 96.72841099 3.13475883 102.82527572 C3.1331968 106.4688103 3.13300042 110.11233138 3.13629532 113.7558651 C3.1397074 117.81211434 3.13498492 121.86831373 3.12939453 125.92456055 C3.13141876 127.13962784 3.13344299 128.35469513 3.13552856 129.60658264 C3.13270874 130.70443085 3.12988892 131.80227905 3.12698364 132.93339539 C3.1264181 134.37327836 3.1264181 134.37327836 3.12584114 135.84224987 C3 138 3 138 2 139 C-0.8116338 139.08861992 -3.59858255 139.11522355 -6.41015625 139.09765625 C-7.25219101 139.0962413 -8.09422577 139.09482635 -8.96177673 139.09336853 C-11.66205335 139.08775263 -14.36224828 139.07519748 -17.0625 139.0625 C-18.88867068 139.05748705 -20.71484266 139.05292379 -22.54101562 139.04882812 C-27.02737542 139.03777804 -31.51367384 139.02050279 -36 139 C-36.95792977 135.36147686 -37.49800802 131.72908331 -38 128 C-38.43570313 128.53109375 -38.87140625 129.0621875 -39.3203125 129.609375 C-44.14794668 135.3356597 -48.34181251 139.79140699 -56 141 C-65.38036028 141.73905869 -73.01873884 140.77531671 -80.375 134.625 C-83.16488682 132.00739703 -85.31435804 129.47663654 -87 126 C-86.01 126 -85.02 126 -84 126 C-83.4225 126.928125 -82.845 127.85625 -82.25 128.8125 C-79.42985258 132.80770884 -77.52434163 133.43388174 -73 135 C-73 135.66 -73 136.32 -73 137 C-62.59640515 138.84952797 -54.06137375 139.10255783 -45 133 C-41.59922631 129.92310952 -41.05199959 128.79299377 -40.75 124.1875 C-40.8325 123.135625 -40.915 122.08375 -41 121 C-36.125 121.875 -36.125 121.875 -35 123 C-35 127.62 -35 132.24 -35 137 C-23.12 137 -11.24 137 1 137 C0.89180498 120.74430762 0.77973576 104.48865744 0.66066074 88.23304176 C0.60548963 80.68451036 0.55203504 73.13597424 0.50268555 65.58740234 C0.45964535 59.0045863 0.41331908 52.42180279 0.36312145 45.8390373 C0.33667925 42.35669789 0.31183195 38.87436426 0.29092598 35.39198685 C0.26747018 31.49516758 0.23667473 27.59842426 0.20532227 23.70166016 C0.1995668 22.55941986 0.19381134 21.41717957 0.18788147 20.24032593 C0.13445281 14.3786742 -0.14212913 8.65579524 -0.88612461 2.83861351 C-0.92370349 2.23187105 -0.96128237 1.62512859 -1 1 C-0.67 0.67 -0.34 0.34 0 0 Z " fill="#18265A" transform="translate(468,455)"/>
<path d="M0 0 C11.55 0 23.1 0 35 0 C35 48.84 35 97.68 35 148 C34.67 148 34.34 148 34 148 C33.67 99.82 33.34 51.64 33 2 C22.44 2 11.88 2 1 2 C0.67 62.39 0.34 122.78 0 185 C24.09 185 48.18 185 73 185 C73 176.09 73 167.18 73 158 C73.66 157.01 74.32 156.02 75 155 C76.50849447 165.55946127 75.42632574 176.34185644 75 187 C37.38 186.505 37.38 186.505 -1 186 C-1.02254468 161.89626577 -1.0409778 137.79254003 -1.05181217 113.68879795 C-1.05697572 102.4978504 -1.06401954 91.30690985 -1.07543945 80.1159668 C-1.08538449 70.36570622 -1.091853 60.61545071 -1.09408849 50.8651852 C-1.09539591 45.69910902 -1.09848369 40.53304733 -1.10573006 35.36697578 C-1.11248744 30.51043666 -1.11461754 25.6539181 -1.11310768 20.79737473 C-1.11338414 19.00946758 -1.11539092 17.22155979 -1.11920547 15.43365669 C-1.12413833 13.00360201 -1.12299981 10.57362623 -1.12025452 8.14356995 C-1.12316736 7.42665735 -1.1260802 6.70974476 -1.12908131 5.97110754 C-1.11412121 1.11412121 -1.11412121 1.11412121 0 0 Z " fill="#243766" transform="translate(295,406)"/>
<path d="M0 0 C12.87 0 25.74 0 39 0 C39.495 1.485 39.495 1.485 40 3 C39.34 3.33 38.68 3.66 38 4 C38 3.34 38 2.68 38 2 C26.12 2 14.24 2 2 2 C2 54.14 2 106.28 2 160 C14.21 160 26.42 160 39 160 C38.67 160.66 38.34 161.32 38 162 C32.74894558 162.02464928 27.49792455 162.04283568 22.24682617 162.05493164 C20.45905979 162.05997218 18.67129755 162.06680454 16.88354492 162.07543945 C14.31948832 162.0875173 11.75548603 162.09323094 9.19140625 162.09765625 C7.98515343 162.10539818 7.98515343 162.10539818 6.75453186 162.11329651 C4.83598285 162.11349215 2.91754632 162.06201983 1 162 C0 161 0 161 -0.12304783 158.3625555 C-0.12212604 157.17620793 -0.12120424 155.98986036 -0.12025452 154.76756287 C-0.12110894 154.10925651 -0.12196337 153.45095016 -0.12284368 152.77269512 C-0.1245003 150.55082894 -0.11897418 148.32903705 -0.11352539 146.10717773 C-0.11324353 144.52084352 -0.11340123 142.93450918 -0.1139679 141.34817505 C-0.11425592 137.02811278 -0.10835837 132.70807803 -0.10139394 128.38802218 C-0.09516125 123.87831685 -0.09455667 119.36861095 -0.09336853 114.85890198 C-0.09025496 106.31305626 -0.08204124 97.76722326 -0.07201904 89.22138315 C-0.06085869 79.49482367 -0.05534765 69.76826358 -0.05032361 60.04169929 C-0.03985864 40.02779084 -0.02151285 20.01389984 0 0 Z " fill="#10234F" transform="translate(643,432)"/>
<path d="M0 0 C0.556875 0.61875 1.11375 1.2375 1.6875 1.875 C1.6875 0.225 1.6875 -1.425 1.6875 -3.125 C6.0039922 -3.88673392 9.43183453 -4.28563604 13.6875 -3.125 C13.3575 -2.135 13.0275 -1.145 12.6875 -0.125 C11.0375 0.205 9.3875 0.535 7.6875 0.875 C7.6875 2.855 7.6875 4.835 7.6875 6.875 C9.0075 6.875 10.3275 6.875 11.6875 6.875 C12.0175 7.865 12.3475 8.855 12.6875 9.875 C11.6875 10.875 11.6875 10.875 9.125 10.9375 C8.320625 10.916875 7.51625 10.89625 6.6875 10.875 C6.6875 13.845 6.6875 16.815 6.6875 19.875 C8.9975 19.875 11.3075 19.875 13.6875 19.875 C13.6875 20.865 13.6875 21.855 13.6875 22.875 C12.06335622 23.06977739 10.43813577 23.25559458 8.8125 23.4375 C7.90757812 23.54191406 7.00265625 23.64632812 6.0703125 23.75390625 C3.6875 23.875 3.6875 23.875 1.6875 22.875 C1.6875 16.275 1.6875 9.675 1.6875 2.875 C1.0275 2.875 0.3675 2.875 -0.3125 2.875 C-0.3125 4.195 -0.3125 5.515 -0.3125 6.875 C-1.9625 6.545 -3.6125 6.215 -5.3125 5.875 C-5.3125 4.225 -5.3125 2.575 -5.3125 0.875 C-6.9625 0.875 -8.6125 0.875 -10.3125 0.875 C-10.3125 6.815 -10.3125 12.755 -10.3125 18.875 C-8.6625 18.875 -7.0125 18.875 -5.3125 18.875 C-5.3125 16.895 -5.3125 14.915 -5.3125 12.875 C-3.6625 12.875 -2.0125 12.875 -0.3125 12.875 C-1.0625 20.625 -1.0625 20.625 -3.3125 22.875 C-10.61684783 23.33876812 -10.61684783 23.33876812 -14.3125 20.875 C-15.53200118 17.21649645 -15.53503359 13.81096431 -15.5625 10 C-15.583125 9.29230469 -15.60375 8.58460938 -15.625 7.85546875 C-15.65864453 3.33869029 -15.14785721 0.43615439 -12.3125 -3.125 C-7.29296156 -5.10639675 -3.82237214 -3.51245008 0 0 Z " fill="#030203" transform="translate(749.3125,620.125)"/>
<path d="M0 0 C3.78039135 2.49344962 5.24514882 4.99479672 6.4375 9.25 C7.28415525 14.1264086 6.90652554 18.41700591 5 23 C2.78615943 25.7505292 1.31365987 26.75204968 -2.15234375 27.40625 C-6.58289259 27.70112846 -8.42916005 27.45191496 -12 24.625 C-14.98794237 20.70332564 -15.18325292 18.59897271 -15.25 13.6875 C-15.27578125 12.55699219 -15.3015625 11.42648437 -15.328125 10.26171875 C-14.96571811 6.65922168 -14.17090973 4.86580373 -12 2 C-7.96676424 -0.68882384 -4.73661243 -0.78249836 0 0 Z M-6 6 C-8.16721782 9.25082673 -8.27221018 10.29232153 -8.25 14.0625 C-8.25515625 14.94035156 -8.2603125 15.81820312 -8.265625 16.72265625 C-8.21559352 19.19802328 -8.21559352 19.19802328 -6 21 C-3.94285168 20.98617135 -3.94285168 20.98617135 -2 20 C-0.33967791 18.02342608 0.01057296 16.59326039 -0.03515625 14.02734375 C-0.43655516 9.54267094 -0.43655516 9.54267094 -3 6 C-3.99 6 -4.98 6 -6 6 Z " fill="#020101" transform="translate(722,648)"/>
<path d="M0 0 C3.86104271 2.57402847 3.75972717 3.90845514 4.66259766 8.38354492 C6.46951204 17.84243462 6.43536571 27.26597074 6.3984375 36.86328125 C6.40046567 38.74928397 6.40338323 40.63528593 6.40713501 42.52128601 C6.41152671 46.45201163 6.40523225 50.38253103 6.39111328 54.31323242 C6.37405909 59.29853742 6.38385911 64.2833563 6.40183067 69.26864338 C6.41278503 73.15794897 6.40916885 77.04714352 6.4014473 80.93645287 C6.39947543 82.77206673 6.40179571 84.60769139 6.40888596 86.44329262 C6.52212702 123.99639106 6.52212702 123.99639106 -5.9765625 137.20703125 C-13.73659654 144.08320041 -22.88994793 145.47792973 -33 145 C-33.99 144.34 -34.98 143.68 -36 143 C-34.08661988 141.08661988 -30.54873731 141.73119739 -28 141.625 C-20.32400029 141.21649889 -13.73997082 139.74442823 -7 136 C-5.87483915 134.16715557 -5.87483915 134.16715557 -5 132 C-4.52949219 131.30132813 -4.05898438 130.60265625 -3.57421875 129.8828125 C-1.58265559 126.23573158 -0.74924459 122.72650999 0.125 118.6875 C0.29386719 117.98560547 0.46273437 117.28371094 0.63671875 116.56054688 C3.47184623 103.78014938 3.1609962 90.21877129 3.16796875 77.1953125 C3.17119905 75.73672456 3.17456428 74.27813691 3.17805481 72.81954956 C3.18397684 69.78936005 3.18590183 66.75919877 3.18530273 63.72900391 C3.1852214 60.66318879 3.19218738 57.59752287 3.20581055 54.53173828 C3.35768309 30.69572905 3.35768309 30.69572905 1 7 C0.66640463 4.66670412 0.33299266 2.33338198 0 0 Z " fill="#1F3363" transform="translate(575,451)"/>
<path d="M0 0 C3.39504747 2.07015089 3.85480846 3.51905302 5 7.3125 C5 12.1682164 3.7262021 14.02753408 1 18 C0.34 18.66 -0.32 19.32 -1 20 C0.98 20.33 2.96 20.66 5 21 C5 22.98 5 24.96 5 27 C3.02 27.66 1.04 28.32 -1 29 C-1.33 28.67 -1.66 28.34 -2 28 C-4.34987262 27.76472227 -6.70556039 27.58613583 -9.0625 27.4375 C-10.35285156 27.35371094 -11.64320313 27.26992188 -12.97265625 27.18359375 C-14.47119141 27.09271484 -14.47119141 27.09271484 -16 27 C-14.49954825 23.3793447 -12.38791209 21.35662195 -9.5 18.75 C-5.22384404 14.61112031 -3.74597915 11.86126474 -3 6 C-6.37503669 7.1858237 -8.64722731 8.27573689 -11 11 C-12.32 10.34 -13.64 9.68 -15 9 C-14.67788008 6.10092075 -14.10951881 4.17618244 -12.5625 1.6875 C-8.56455413 -0.94529362 -4.64348275 -0.7494473 0 0 Z " fill="#020102" transform="translate(746,648)"/>
<path d="M0 0 C0.76183594 -0.01417969 1.52367187 -0.02835938 2.30859375 -0.04296875 C4.84295042 0.21617691 6.41200201 0.83642626 8.5625 2.1875 C10.22777775 5.04226185 10.57821404 6.81822013 10.4375 10.125 C9.40502817 13.73865141 7.84314645 16.21574857 5.5625 19.1875 C4.9025 19.5175 4.2425 19.8475 3.5625 20.1875 C5.8725 20.5175 8.1825 20.8475 10.5625 21.1875 C10.5625 23.1675 10.5625 25.1475 10.5625 27.1875 C3.6325 27.1875 -3.2975 27.1875 -10.4375 27.1875 C-8.25874761 22.82999522 -5.8060785 20.47557389 -2.3125 17.1875 C0.88949927 13.77203411 1.5625 11.92485029 1.5625 7.1875 C-1.70704202 7.75121414 -3.26325883 8.68712266 -5.4375 11.1875 C-7.0875 10.1975 -8.7375 9.2075 -10.4375 8.1875 C-8.5625 3.4375 -8.5625 3.4375 -7.4375 1.1875 C-4.66697819 0.26399273 -2.87061242 0.02420415 0 0 Z " fill="#020102" transform="translate(694.4375,647.8125)"/>
<path d="M0 0 C1.63001953 0.15275391 1.63001953 0.15275391 3.29296875 0.30859375 C4.12441406 0.39238281 4.95585938 0.47617187 5.8125 0.5625 C5.855221 2.22861905 5.85313832 3.89632885 5.8125 5.5625 C4.8125 6.5625 4.8125 6.5625 2.96484375 6.66015625 C0.9140625 6.62760417 -1.13671875 6.59505208 -3.1875 6.5625 C-3.1875 7.5525 -3.1875 8.5425 -3.1875 9.5625 C-2.094375 9.645 -1.00125 9.7275 0.125 9.8125 C3.8125 10.5625 3.8125 10.5625 5.75 12.125 C7.27819762 15.63086514 7.6072097 18.85385472 6.8125 22.5625 C4.71304611 25.30345369 3.01958833 26.95895583 -0.0625 28.5 C-4.13574429 28.6198013 -7.85304309 27.55258093 -11.125 25.125 C-12.1875 23.5625 -12.1875 23.5625 -12.1875 20.5625 C-10.2075 20.2325 -8.2275 19.9025 -6.1875 19.5625 C-6.1875 20.2225 -6.1875 20.8825 -6.1875 21.5625 C-4.5375 21.2325 -2.8875 20.9025 -1.1875 20.5625 C-1.5175 18.9125 -1.8475 17.2625 -2.1875 15.5625 C-5.1575 15.5625 -8.1275 15.5625 -11.1875 15.5625 C-10.5275 10.6125 -9.8675 5.6625 -9.1875 0.5625 C-5.76060364 -0.57979879 -3.57647782 -0.34611076 0 0 Z " fill="#020102" transform="translate(765.1875,647.4375)"/>
<path d="M0 0 C0.99 0 1.98 0 3 0 C5.41603507 3.72979816 5.28278075 7.40766151 5.25878906 11.69921875 C5.2622937 12.47056656 5.26579834 13.24191437 5.26940918 14.03663635 C5.2782102 16.58701588 5.2723785 19.13711762 5.265625 21.6875 C5.26697322 23.46907606 5.26891506 25.25065176 5.27142334 27.03222656 C5.27437331 30.77135715 5.2700851 34.51039224 5.26074219 38.24951172 C5.24941389 43.01255514 5.2558656 47.7753715 5.26788712 52.53840637 C5.27516588 56.22244936 5.27278925 59.90643992 5.26763153 63.59048462 C5.26630815 65.34453356 5.26789615 67.09858745 5.27259064 68.85263062 C5.32345478 93.22438598 5.32345478 93.22438598 1 100.25 C-3.30869841 102.7634074 -7.12880648 102.42563827 -12 102 C-12.495 99.525 -12.495 99.525 -13 97 C-12.13375 97.350625 -11.2675 97.70125 -10.375 98.0625 C-6.75174758 99.068959 -4.6146678 98.86063519 -1 98 C0.76531091 92.67868481 1.28420725 88.08324581 1.24291992 82.49780273 C1.24576744 81.26714584 1.24576744 81.26714584 1.24867249 80.0116272 C1.25235572 77.31884994 1.24171107 74.62634674 1.23046875 71.93359375 C1.22927543 70.0522515 1.22882411 68.17090865 1.2290802 66.28956604 C1.22751956 62.35487108 1.21926174 58.42026765 1.20581055 54.4855957 C1.18880976 49.44969698 1.18499685 44.41389857 1.18575573 39.37797451 C1.18548344 35.49602812 1.17999295 31.61410351 1.17275429 27.73216438 C1.16957935 25.87547025 1.16760297 24.01877365 1.16686058 22.16207695 C1.16468519 19.56560968 1.15591544 16.96924733 1.14526367 14.37280273 C1.14571686 13.61055893 1.14617004 12.84831512 1.14663696 12.06297302 C1.12198048 7.93908092 0.80201957 4.04619409 0 0 Z " fill="#142F5E" transform="translate(538,464)"/>
<path d="M0 0 C0.99 0.33 1.98 0.66 3 1 C2.67 9.58 2.34 18.16 2 27 C1.01 27 0.02 27 -1 27 C-5.40774487 18.738041 -5.40774487 18.738041 -6 14 C-6.79560764 16.91499943 -7.25322499 19.74561419 -7.5625 22.75 C-7.64628906 23.54921875 -7.73007812 24.3484375 -7.81640625 25.171875 C-7.87699219 25.77515625 -7.93757812 26.3784375 -8 27 C-9.32 27 -10.64 27 -12 27 C-12 18.42 -12 9.84 -12 1 C-9.525 1.495 -9.525 1.495 -7 2 C-5.63671875 4.06640625 -5.63671875 4.06640625 -4.6875 6.5625 C-4.36136719 7.38878906 -4.03523437 8.21507812 -3.69921875 9.06640625 C-3.46847656 9.70449219 -3.23773437 10.34257813 -3 11 C-2.95101562 10.28972656 -2.90203125 9.57945312 -2.8515625 8.84765625 C-2.77679687 7.92855469 -2.70203125 7.00945313 -2.625 6.0625 C-2.55539062 5.14597656 -2.48578125 4.22945312 -2.4140625 3.28515625 C-2.27742187 2.53105469 -2.14078125 1.77695312 -2 1 C-1.34 0.67 -0.68 0.34 0 0 Z " fill="#030102" transform="translate(729,616)"/>
<path d="M0 0 C0.82290527 0.00202423 1.64581055 0.00404846 2.49365234 0.00613403 C3.33331543 0.00517731 4.17297852 0.00422058 5.03808594 0.00323486 C6.81689529 0.00255306 8.59570712 0.00440737 10.37451172 0.00857544 C13.10699011 0.01392371 15.83930411 0.00863048 18.57177734 0.00222778 C20.29573604 0.00288856 22.01969464 0.00416973 23.74365234 0.00613403 C24.56655762 0.0041098 25.38946289 0.00208557 26.23730469 0 C32.0037018 0.02399599 32.0037018 0.02399599 33.11865234 1.13894653 C33.21943354 3.50293122 33.2583845 5.83705964 33.25146484 8.20144653 C33.25242157 8.90793335 33.2533783 9.61442017 33.25436401 10.34231567 C33.25504567 11.83865447 33.25319239 13.3349962 33.24902344 14.83132935 C33.24367492 17.1292481 33.24896885 19.42697139 33.25537109 21.72488403 C33.25471031 23.1754053 33.25342914 24.62592645 33.25146484 26.07644653 C33.25348907 26.76810913 33.25551331 27.45977173 33.25759888 28.1723938 C33.23360458 33.0239943 33.23360458 33.0239943 32.11865234 34.13894653 C29.40309007 34.23996766 26.71350696 34.2786493 23.99755859 34.27175903 C22.77491554 34.27319412 22.77491554 34.27319412 21.52757263 34.2746582 C19.80003787 34.27534006 18.07250057 34.27348537 16.3449707 34.26931763 C13.69590506 34.26397628 11.0470095 34.26925885 8.39794922 34.27566528 C6.72281863 34.27500437 5.04768816 34.27372293 3.37255859 34.27175903 C2.17875328 34.27479538 2.17875328 34.27479538 0.96083069 34.27789307 C-4.65143677 34.25390197 -4.65143677 34.25390197 -6.88134766 33.13894653 C-6.90600158 28.59996948 -6.92418554 24.0610311 -6.9362793 19.52200317 C-6.94131905 17.97674888 -6.94815085 16.43149937 -6.95678711 14.88626099 C-6.96886842 12.66969625 -6.97457938 10.45319435 -6.97900391 8.23660278 C-6.98416519 7.54180313 -6.98932648 6.84700348 -6.99464417 6.13114929 C-6.99484042 4.46665323 -6.94323894 2.80229155 -6.88134766 1.13894653 C-5.03858257 -0.70381855 -2.45171007 0.01020242 0 0 Z M-4.88134766 2.13894653 C-4.88134766 12.03894653 -4.88134766 21.93894653 -4.88134766 32.13894653 C6.99865234 32.13894653 18.87865234 32.13894653 31.11865234 32.13894653 C31.11865234 22.23894653 31.11865234 12.33894653 31.11865234 2.13894653 C19.23865234 2.13894653 7.35865234 2.13894653 -4.88134766 2.13894653 Z " fill="#15244E" transform="translate(756.88134765625,559.8610534667969)"/>
<path d="M0 0 C1.32 0 2.64 0 4 0 C5.65 3.3 7.3 6.6 9 10 C9.33 6.7 9.66 3.4 10 0 C11.32 0 12.64 0 14 0 C14 8.25 14 16.5 14 25 C12.68 25 11.36 25 10 25 C8.35 21.37 6.7 17.74 5 14 C4.67 17.63 4.34 21.26 4 25 C2.68 25 1.36 25 0 25 C0 16.75 0 8.5 0 0 Z " fill="#030202" transform="translate(366,616)"/>
<path d="M0 0 C3 1 3 1 4.38671875 3.50390625 C4.81597656 4.51324219 5.24523437 5.52257812 5.6875 6.5625 C6.12449219 7.57441406 6.56148438 8.58632813 7.01171875 9.62890625 C7.33785156 10.41136719 7.66398437 11.19382812 8 12 C8.33 8.37 8.66 4.74 9 1 C10.32 1 11.64 1 13 1 C13 9.25 13 17.5 13 26 C12.01 26.33 11.02 26.66 10 27 C9.18501438 25.3970947 8.37310073 23.79262722 7.5625 22.1875 C7.11003906 21.29417969 6.65757812 20.40085937 6.19140625 19.48046875 C5 17 5 17 4 14 C3.67 17.96 3.34 21.92 3 26 C1.68 26 0.36 26 -1 26 C-1.02886751 21.85418113 -1.04675327 17.70838784 -1.0625 13.5625 C-1.07087891 12.37849609 -1.07925781 11.19449219 -1.08789062 9.97460938 C-1.09111328 8.84990234 -1.09433594 7.72519531 -1.09765625 6.56640625 C-1.10289307 5.52427979 -1.10812988 4.48215332 -1.11352539 3.40844727 C-1 1 -1 1 0 0 Z " fill="#030203" transform="translate(380,647)"/>
<path d="M0 0 C3 1 3 1 4.38671875 3.50390625 C4.81597656 4.51324219 5.24523437 5.52257812 5.6875 6.5625 C6.12449219 7.57441406 6.56148438 8.58632813 7.01171875 9.62890625 C7.33785156 10.41136719 7.66398437 11.19382812 8 12 C8.33 8.37 8.66 4.74 9 1 C10.32 1.33 11.64 1.66 13 2 C13 9.92 13 17.84 13 26 C11.68 26 10.36 26 9 26 C8.32645501 24.56570999 7.66140299 23.12742943 7 21.6875 C6.62875 20.88699219 6.2575 20.08648438 5.875 19.26171875 C5 17 5 17 5 14 C4.34 14 3.68 14 3 14 C3 17.96 3 21.92 3 26 C2.01 26.33 1.02 26.66 0 27 C-1.74545605 25.25454395 -1.1302316 22.83875783 -1.1328125 20.46875 C-1.13410156 19.34855469 -1.13539063 18.22835937 -1.13671875 17.07421875 C-1.13285156 15.89472656 -1.12898438 14.71523438 -1.125 13.5 C-1.12886719 12.32050781 -1.13273437 11.14101563 -1.13671875 9.92578125 C-1.13542969 8.80558594 -1.13414062 7.68539062 -1.1328125 6.53125 C-1.13168457 5.49548828 -1.13055664 4.45972656 -1.12939453 3.39257812 C-1 1 -1 1 0 0 Z " fill="#030203" transform="translate(310,647)"/>
<path d="M0 0 C0.33 0 0.66 0 1 0 C1 59.4 1 118.8 1 180 C1.66 180.33 2.32 180.66 3 181 C2.34 183.31 1.68 185.62 1 188 C-9.23 188 -19.46 188 -30 188 C-30 187.34 -30 186.68 -30 186 C-20.1 186 -10.2 186 0 186 C0 124.62 0 63.24 0 0 Z " fill="#102151" transform="translate(628,406)"/>
<path d="M0 0 C0.66 0 1.32 0 2 0 C1.83923477 0.91141251 1.67846954 1.82282501 1.51283264 2.76185608 C0.75730151 8.09290432 0.82287973 13.43534311 0.79467773 18.81030273 C0.78477814 19.98175339 0.77487854 21.15320404 0.76467896 22.3601532 C0.73318477 26.21794642 0.70835434 30.07575193 0.68359375 33.93359375 C0.66301379 36.61402292 0.6420634 39.29444663 0.62062073 41.97486877 C0.57083248 48.29990331 0.52584259 54.6249624 0.48259836 60.95004469 C0.43310698 68.15445202 0.37823323 75.35881525 0.32291877 82.56317985 C0.2093118 97.37541137 0.10242694 112.18768684 0 127 C-0.66 126.67 -1.32 126.34 -2 126 C-2.04676932 110.60523809 -2.082013 95.21048151 -2.10362434 79.81566525 C-2.11392663 72.66720641 -2.12796688 65.51879178 -2.15087891 58.37036133 C-2.17084492 52.13808762 -2.18372405 45.90584593 -2.18817699 39.67354113 C-2.19077895 36.37512356 -2.19792975 33.07681867 -2.21146011 29.77842522 C-2.22598161 26.09173022 -2.22797763 22.40522486 -2.22705078 18.71850586 C-2.23424133 17.63093491 -2.24143188 16.54336395 -2.24884033 15.4228363 C-2.23376748 9.880666 -1.86419999 5.23361611 0 0 Z " fill="#242F64" transform="translate(683,464)"/>
<path d="M0 0 C4 1 4 1 5.265625 3.06640625 C6.17708333 5.37760417 7.08854167 7.68880208 8 10 C8.33 6.7 8.66 3.4 9 0 C10.32 0 11.64 0 13 0 C13 8.25 13 16.5 13 25 C12.01 25.33 11.02 25.66 10 26 C8.35 22.37 6.7 18.74 5 15 C4.67 18.3 4.34 21.6 4 25 C2.68 25 1.36 25 0 25 C0 16.75 0 8.5 0 0 Z " fill="#050304" transform="translate(423,616)"/>
<path d="M0 0 C7.38804781 -0.36334661 7.38804781 -0.36334661 10 1.1875 C11.30894168 3.55995679 11.21620175 5.3335118 11 8 C9.68 8 8.36 8 7 8 C7 6.68 7 5.36 7 4 C5.68 4 4.36 4 3 4 C1.62254432 9.50982274 1.1801503 15.54045091 3 21 C4.32 21 5.64 21 7 21 C6.65555119 18.52733235 6.65555119 18.52733235 6 16 C5.34 15.67 4.68 15.34 4 15 C4 14.01 4 13.02 4 12 C6.31 12 8.62 12 11 12 C11 16.29 11 20.58 11 25 C10.01 25 9.02 25 8 25 C7.0409375 25.06960938 7.0409375 25.06960938 6.0625 25.140625 C5.381875 25.17671875 4.70125 25.2128125 4 25.25 C3.319375 25.29640625 2.63875 25.3428125 1.9375 25.390625 C0 25 0 25 -1.70703125 23.53125 C-3.59435266 19.83643346 -3.56859339 16.34718193 -3.6875 12.25 C-3.73874023 11.06083984 -3.73874023 11.06083984 -3.79101562 9.84765625 C-3.87319104 7.89892496 -3.93828045 5.94948638 -4 4 C-3.34 4 -2.68 4 -2 4 C-1.34 2.68 -0.68 1.36 0 0 Z " fill="#030203" transform="translate(388,616)"/>
<path d="M0 0 C12.87 0 25.74 0 39 0 C39.495 1.485 39.495 1.485 40 3 C39.34 3.33 38.68 3.66 38 4 C38 3.34 38 2.68 38 2 C26.12 2 14.24 2 2 2 C1.67 50.18 1.34 98.36 1 148 C0.67 148 0.34 148 0 148 C0 99.16 0 50.32 0 0 Z " fill="#1C2A5C" transform="translate(643,432)"/>
<path d="M0 0 C0.9375 2.6875 0.9375 2.6875 1 5 C-0.32 5.33 -1.64 5.66 -3 6 C-3.66 4.68 -4.32 3.36 -5 2 C-6.32 2 -7.64 2 -9 2 C-7.15870542 5.46596626 -4.99252668 8.11099413 -2.3125 10.9375 C0.10307123 13.64416543 0.93680694 14.66507677 1.625 18.3125 C0.93738923 21.26922629 0.49423509 22.30748333 -2 24 C-4.93393664 25.4163832 -6.03248624 24.98917125 -9.1875 23.9375 C-12 22 -12 22 -12.875 18.8125 C-12.91625 17.884375 -12.9575 16.95625 -13 16 C-11.68 15.67 -10.36 15.34 -9 15 C-8.67 16.65 -8.34 18.3 -8 20 C-6.68 19.67 -5.36 19.34 -4 19 C-5.43969052 13.96108318 -8.01900215 12.13397703 -12 9 C-13.50662097 5.98675805 -13.17770373 3.31713623 -13 0 C-8.6114837 -4.3885163 -5.1454454 -2.91251627 0 0 Z " fill="#040103" transform="translate(706,619)"/>
<path d="M0 0 C1.875 1.5 1.875 1.5 3 3 C1 4 1 4 -2.4375 3.375 C-5.86348656 2.64183456 -5.86348656 2.64183456 -7.875 4.1875 C-10.61603419 8.60361064 -10.13563989 13.59353256 -10.11352539 18.62402344 C-10.11367142 19.49267532 -10.11381744 20.36132721 -10.1139679 21.25630188 C-10.11327191 24.12401843 -10.10549415 26.99166981 -10.09765625 29.859375 C-10.09579096 31.8490597 -10.09436758 33.83874485 -10.09336853 35.82843018 C-10.08955212 41.06285879 -10.07972929 46.29725961 -10.06866455 51.53167725 C-10.05843162 56.87397892 -10.05386687 62.21628509 -10.04882812 67.55859375 C-10.03810626 78.0390747 -10.02104032 88.51953504 -10 99 C-10.99 99.495 -10.99 99.495 -12 100 C-13.62436636 96.75126727 -13.16536319 93.17719095 -13.17700195 89.60644531 C-13.18357315 88.73796967 -13.19014435 87.86949402 -13.19691467 86.97470093 C-13.21667029 84.09250812 -13.22831587 81.2103675 -13.23828125 78.328125 C-13.24439454 76.85271366 -13.24439454 76.85271366 -13.25063133 75.34749603 C-13.27150265 70.14052031 -13.28579925 64.93357102 -13.29516602 59.7265625 C-13.30622707 54.34845234 -13.34062055 48.97075632 -13.38033772 43.59279251 C-13.40648759 39.4577762 -13.41485646 35.32285875 -13.41844749 31.18776703 C-13.42331839 29.20544389 -13.43494665 27.22312531 -13.45348549 25.24088287 C-13.47784007 22.46396636 -13.47691853 19.68812349 -13.4699707 16.91113281 C-13.48278076 16.09428009 -13.49559082 15.27742737 -13.50878906 14.43582153 C-13.46083924 9.16954702 -12.502924 6.16829009 -9 2 C-5.53076119 -0.31282587 -4.07794425 -0.42478586 0 0 Z " fill="#0E206C" transform="translate(536,460)"/>
<path d="M0 0 C1.32 0 2.64 0 4 0 C6 8 8 16 10 24 C8.02 24.99 8.02 24.99 6 26 C4.5393715 23.35261084 4 22.10551666 4 19 C2.68 19.33 1.36 19.66 0 20 C-0.33 21.98 -0.66 23.96 -1 26 C-2.65 25.67 -4.3 25.34 -6 25 C-5.19360643 21.01957023 -4.3788693 17.04089475 -3.5625 13.0625 C-3.33240234 11.92619141 -3.10230469 10.78988281 -2.86523438 9.61914062 C-2.64287109 8.53955078 -2.42050781 7.45996094 -2.19140625 6.34765625 C-1.98717041 5.34742432 -1.78293457 4.34719238 -1.57250977 3.31665039 C-1 1 -1 1 0 0 Z M1 10 C0.67 11.98 0.34 13.96 0 16 C0.99 15.67 1.98 15.34 3 15 C2.67 13.35 2.34 11.7 2 10 C1.67 10 1.34 10 1 10 Z " fill="#040303" transform="translate(409,616)"/>
<path d="M0 0 C1.32 0 2.64 0 4 0 C8.57446809 17.14893617 8.57446809 17.14893617 9 26 C7.68 25.67 6.36 25.34 5 25 C4.67 23.02 4.34 21.04 4 19 C2.68 19.33 1.36 19.66 0 20 C-0.33 21.65 -0.66 23.3 -1 25 C-2.32 25.33 -3.64 25.66 -5 26 C-6.28208067 23.43583866 -5.84941634 22.35787126 -5.29296875 19.5703125 C-5.0309668 18.25353516 -5.0309668 18.25353516 -4.76367188 16.91015625 C-4.57353516 15.99105469 -4.38339844 15.07195313 -4.1875 14.125 C-4.00896484 13.21363281 -3.83042969 12.30226563 -3.64648438 11.36328125 C-2.81300694 7.253064 -2.02184674 3.70645389 0 0 Z M1 10 C0.67 11.98 0.34 13.96 0 16 C0.99 16 1.98 16 3 16 C3 14.35 3 12.7 3 11 C2.34 10.67 1.68 10.34 1 10 Z " fill="#030202" transform="translate(318,616)"/>
<path d="M0 0 C1.65 0 3.3 0 5 0 C6.65 8.25 8.3 16.5 10 25 C8.68 25.33 7.36 25.66 6 26 C5.67 23.69 5.34 21.38 5 19 C3.35 19 1.7 19 0 19 C0 20.65 0 22.3 0 24 C-1.98 24.99 -1.98 24.99 -4 26 C-5.14806133 22.58024284 -4.83383098 20.27851047 -4.00390625 16.796875 C-3.77509766 15.8171875 -3.54628906 14.8375 -3.31054688 13.828125 C-2.94026367 12.30445313 -2.94026367 12.30445313 -2.5625 10.75 C-2.31951172 9.71875 -2.07652344 8.6875 -1.82617188 7.625 C-1.22557219 5.08128367 -0.61658359 2.53988059 0 0 Z M2 8 C1.67 10.31 1.34 12.62 1 15 C1.99 15.33 2.98 15.66 4 16 C3.67 13.36 3.34 10.72 3 8 C2.67 8 2.34 8 2 8 Z " fill="#030203" transform="translate(365,648)"/>
<path d="M0 0 C1.65 0 3.3 0 5 0 C6.65 8.25 8.3 16.5 10 25 C9.01 25.33 8.02 25.66 7 26 C5 24 5 24 4.875 21.375 C4.91625 20.59125 4.9575 19.8075 5 19 C3.35 19 1.7 19 0 19 C-0.33 20.98 -0.66 22.96 -1 25 C-2.32 25 -3.64 25 -5 25 C-3.8356269 16.50692562 -2.23691302 8.27657818 0 0 Z M2 8 C1.67 10.31 1.34 12.62 1 15 C1.99 15 2.98 15 4 15 C3.67 12.69 3.34 10.38 3 8 C2.67 8 2.34 8 2 8 Z " fill="#040204" transform="translate(352,616)"/>
<path d="M0 0 C0.70125 0.00515625 1.4025 0.0103125 2.125 0.015625 C2.82625 0.01046875 3.5275 0.0053125 4.25 0 C6.125 0.265625 6.125 0.265625 8.125 2.265625 C8.75 4.890625 8.75 4.890625 9.125 7.265625 C7.805 7.595625 6.485 7.925625 5.125 8.265625 C4.465 6.945625 3.805 5.625625 3.125 4.265625 C2.465 4.265625 1.805 4.265625 1.125 4.265625 C0.67462342 8.14318828 0.67462342 8.14318828 2.62109375 9.8984375 C3.26175781 10.39085937 3.90242188 10.88328125 4.5625 11.390625 C8.0455298 14.1066846 8.0455298 14.1066846 9.125 16.265625 C9.38360135 20.31704619 9.42941554 21.80900169 7.125 25.265625 C4.8125 26.140625 4.8125 26.140625 2.125 26.265625 C-0.1581838 25.1240331 -2.06512683 24.07549817 -3.875 22.265625 C-3.91563832 20.59945385 -3.917721 18.93174405 -3.875 17.265625 C-2.555 17.265625 -1.235 17.265625 0.125 17.265625 C0.125 18.585625 0.125 19.905625 0.125 21.265625 C1.445 21.265625 2.765 21.265625 4.125 21.265625 C4.15752936 18.97370651 4.15752936 18.97370651 3.125 16.265625 C1.48178994 14.82967767 1.48178994 14.82967767 -0.4375 13.453125 C-3.72379025 10.86045749 -3.72379025 10.86045749 -4.40625 8.17578125 C-4.4375 6.015625 -4.4375 6.015625 -3.875 2.265625 C-1.875 0.265625 -1.875 0.265625 0 0 Z " fill="#030203" transform="translate(331.875,647.734375)"/>
<path d="M0 0 C0.33 0 0.66 0 1 0 C1.01030746 1.2815094 1.02061493 2.5630188 1.03123474 3.88336182 C1.12891205 15.94940315 1.23164082 28.01539225 1.33933926 40.08134842 C1.39454749 46.28484568 1.44796423 52.48834768 1.49731445 58.69189453 C1.54498883 64.67655319 1.59733292 70.66115431 1.65294075 76.64574432 C1.67335033 78.93111492 1.69206573 81.21650128 1.70907402 83.50189972 C1.73314878 86.69826465 1.7631994 89.89452093 1.79467773 93.09082031 C1.8004332 94.03956528 1.80618866 94.98831024 1.81211853 95.96580505 C1.82190735 96.83796158 1.83169617 97.7101181 1.84178162 98.60870361 C1.84823417 99.36457386 1.85468672 100.12044411 1.8613348 100.89921951 C1.96015634 103.34527693 1.96015634 103.34527693 3 107 C14.88 107.33 26.76 107.66 39 108 C38.505 109.98 38.505 109.98 38 112 C38 111.34 38 110.68 38 110 C36.88439697 110.00523682 35.76879395 110.01047363 34.61938477 110.01586914 C30.49520667 110.03391775 26.37103209 110.04543149 22.24682617 110.05493164 C20.45905979 110.05997218 18.67129755 110.06680454 16.88354492 110.07543945 C14.31948832 110.0875173 11.75548603 110.09323094 9.19140625 110.09765625 C7.98515343 110.10539818 7.98515343 110.10539818 6.75453186 110.11329651 C4.83598285 110.11349215 2.91754632 110.06201983 1 110 C0 109 0 109 -0.12304783 107.17465878 C-0.12212604 106.37177709 -0.12120424 105.5688954 -0.12025452 104.74168396 C-0.12162918 103.8231665 -0.12300385 102.90464905 -0.12442017 101.95829773 C-0.12082489 100.94266251 -0.11722961 99.92702728 -0.11352539 98.88061523 C-0.11367142 97.81733002 -0.11381744 96.7540448 -0.1139679 95.65853882 C-0.11326825 92.12520342 -0.10547343 88.59192 -0.09765625 85.05859375 C-0.09579225 82.61621632 -0.09436827 80.17383851 -0.09336853 77.73146057 C-0.08954189 71.28865536 -0.07971037 64.84587252 -0.06866455 58.40307617 C-0.05845356 51.83447574 -0.05387158 45.2658717 -0.04882812 38.69726562 C-0.03808823 25.79816751 -0.02120104 12.89908494 0 0 Z " fill="#0E244D" transform="translate(330,452)"/>
<path d="M0 0 C1.58448651 2.81249058 2.25134864 4.83582678 2.25878906 8.05908203 C2.26509338 8.84735382 2.27139771 9.63562561 2.27789307 10.44778442 C2.2738446 11.29259369 2.26979614 12.13740295 2.265625 13.0078125 C2.26753845 13.88847382 2.2694519 14.76913513 2.27142334 15.67648315 C2.27278338 17.54083542 2.26909955 19.40519722 2.26074219 21.26953125 C2.25011672 24.09397267 2.26060371 26.91776685 2.2734375 29.7421875 C2.27211438 31.55989722 2.26954883 33.37760654 2.265625 35.1953125 C2.26967346 36.02797638 2.27372192 36.86064026 2.27789307 37.71853638 C2.22547794 44.42959819 2.01829854 51.8604245 -1.6875 57.625 C-4.97822737 59.58164871 -7.23959238 59.47005095 -11 59 C-13.4375 57.5 -13.4375 57.5 -15 56 C-14.67 55.01 -14.34 54.02 -14 53 C-13.46375 53.495 -12.9275 53.99 -12.375 54.5 C-9.40641555 56.37489544 -7.44687573 56.23501425 -4 56 C-0.28403385 49.80672308 -0.81624865 42.13427581 -0.68359375 35.12890625 C-0.6524221 33.74541237 -0.6524221 33.74541237 -0.62062073 32.33396912 C-0.55564362 29.41021617 -0.49648316 26.48637939 -0.4375 23.5625 C-0.39426539 21.57095514 -0.35064958 19.57941852 -0.30664062 17.58789062 C-0.20001593 12.72534463 -0.09860497 7.86271496 0 3 C-1.28689255 3.60951122 -2.57003708 4.22693975 -3.8515625 4.84765625 C-4.56650879 5.19062744 -5.28145508 5.53359863 -6.01806641 5.88696289 C-10.46997882 8.38711917 -12.39632693 12.3226202 -14 17 C-14.66 17 -15.32 17 -16 17 C-15.54271062 12.08413917 -14.50084733 9.50084733 -11 6 C-7.48755696 3.48605387 -4.10730523 1.36910174 0 0 Z " fill="#1A2C5E" transform="translate(431,507)"/>
<path d="M0 0 C1.60332791 -0.08121924 3.20784026 -0.13929134 4.8125 -0.1875 C6.15248047 -0.23970703 6.15248047 -0.23970703 7.51953125 -0.29296875 C10 0 10 0 11.7890625 1.265625 C13.50700425 3.72616092 13.58995447 6.11081544 13.4921875 9.0546875 C13 11 13 11 10.1875 13.5625 C7 15 7 15 4 14 C4 17.63 4 21.26 4 25 C3.01 25.33 2.02 25.66 1 26 C0 25 0 25 -0.11352539 22.59155273 C-0.10828857 21.54942627 -0.10305176 20.5072998 -0.09765625 19.43359375 C-0.09443359 18.30888672 -0.09121094 17.18417969 -0.08789062 16.02539062 C-0.07951172 14.84138672 -0.07113281 13.65738281 -0.0625 12.4375 C-0.05798828 11.24962891 -0.05347656 10.06175781 -0.04882812 8.83789062 C-0.03699675 5.89187774 -0.02051287 2.94596319 0 0 Z M4 3 C4 5.31 4 7.62 4 10 C5.32 10 6.64 10 8 10 C9.29633621 8.93354885 9.29633621 8.93354885 9.0625 6.4375 C9.041875 5.633125 9.02125 4.82875 9 4 C7.35 3.67 5.7 3.34 4 3 Z " fill="#060405" transform="translate(332,616)"/>
<path d="M0 0 C0.33 0.99 0.66 1.98 1 3 C1.66 3 2.32 3 3 3 C3.04629386 14.16117756 3.08185419 25.32233237 3.10362434 36.48358631 C3.11407171 41.66593117 3.1282483 46.84821046 3.15087891 52.03051758 C3.1725733 57.02959019 3.18456145 62.02859964 3.18975449 67.02771568 C3.19345637 68.93714073 3.200685 70.84656223 3.21146011 72.75596046 C3.22592979 75.42568114 3.22797984 78.09513915 3.22705078 80.76489258 C3.23783661 81.95495911 3.23783661 81.95495911 3.24884033 83.16906738 C3.23441687 86.98692567 3.1703966 88.7444051 1 92 C0.67 61.64 0.34 31.28 0 0 Z " fill="#1B2C60" transform="translate(735,455)"/>
<path d="M0 0 C0.33 0 0.66 0 1 0 C1.02319031 10.19669169 1.0409492 20.39337709 1.05181217 30.5900898 C1.05702636 35.32504331 1.06409742 40.05997876 1.07543945 44.79492188 C1.08632037 49.36606905 1.09228788 53.93719887 1.09487724 58.508358 C1.09672211 60.25062203 1.10032465 61.99288513 1.10573006 63.73514175 C1.11300955 66.17908009 1.11398803 68.62294706 1.11352539 71.06689453 C1.11712067 71.78403122 1.12071594 72.50116791 1.12442017 73.24003601 C1.1161989 77.26475055 0.77728464 81.05103886 0 85 C-0.66 84.67 -1.32 84.34 -2 84 C-2.0253261 77.64624888 -2.04285678 71.29251074 -2.05493164 64.9387207 C-2.05996472 62.77660638 -2.06679169 60.61449547 -2.07543945 58.45239258 C-2.08754979 55.34715941 -2.09323852 52.2419712 -2.09765625 49.13671875 C-2.10281754 48.16788254 -2.10797882 47.19904633 -2.11329651 46.20085144 C-2.11337204 45.3001442 -2.11344757 44.39943695 -2.11352539 43.47143555 C-2.115746 42.67867722 -2.11796661 41.88591888 -2.12025452 41.06913757 C-2 39 -2 39 -1 36 C-0.84629652 33.27116927 -0.74271735 30.56302858 -0.68359375 27.83203125 C-0.66281265 27.03721848 -0.64203156 26.2424057 -0.62062073 25.42350769 C-0.55527913 22.88659237 -0.49631192 20.34957427 -0.4375 17.8125 C-0.39430014 16.09178628 -0.35068537 14.37108292 -0.30664062 12.65039062 C-0.19961352 8.43369887 -0.09830276 4.2169038 0 0 Z " fill="#0C2241" transform="translate(738,508)"/>
<path d="M0 0 C0.66 0 1.32 0 2 0 C4.40666109 13.16414622 2.17327557 28.98767791 -5.4609375 40.1328125 C-10.64487557 46.72833934 -16.56141356 50.31920773 -24.87109375 51.59375 C-35.13062848 52.57958101 -35.13062848 52.57958101 -39 50 C-37.08661988 48.08661988 -33.54873731 48.73119739 -31 48.625 C-23.32400029 48.21649889 -16.73997082 46.74442823 -10 43 C-8.87483915 41.16715557 -8.87483915 41.16715557 -8 39 C-7.52949219 38.30132813 -7.05898438 37.60265625 -6.57421875 36.8828125 C-4.58403982 33.23826647 -3.74064781 29.72632587 -2.875 25.6875 C-2.70323242 24.90584473 -2.53146484 24.12418945 -2.35449219 23.31884766 C-0.74895865 15.57955249 -0.214884 7.8862428 0 0 Z " fill="#1A2B5D" transform="translate(578,544)"/>
<path d="M0 0 C1.8125 0.5 1.8125 0.5 4 2 C6.75052549 7.95836726 7.42253388 12.80473758 7.25 19.3125 C7.24484375 20.10978516 7.2396875 20.90707031 7.234375 21.72851562 C7.18964338 25.05263401 7.05711019 27.82866943 6 31 C3.39892578 32.16333008 3.39892578 32.16333008 -0.0546875 33.26953125 C-0.97896042 33.5747596 -0.97896042 33.5747596 -1.92190552 33.88615417 C-3.90274961 34.53970137 -5.8880649 35.17773109 -7.875 35.8125 C-16.97724905 38.72526505 -25.99399914 41.61938863 -34 47 C-34.33 47.66 -34.66 48.32 -35 49 C-36.485 49.495 -36.485 49.495 -38 50 C-39.20882096 52.00016466 -39.20882096 52.00016466 -40 54 C-40.66 53.67 -41.32 53.34 -42 53 C-34.67363768 38.75429548 -13.98470449 34.33866771 0.06152344 29.53149414 C2 29 2 29 5 29 C4.91244571 25.97786746 4.80548937 22.95847319 4.6875 19.9375 C4.65366211 18.66616211 4.65366211 18.66616211 4.61914062 17.36914062 C4.35290562 11.10051645 3.63186743 5.63186743 -1 1 C-0.67 0.67 -0.34 0.34 0 0 Z " fill="#142553" transform="translate(426,460)"/>
<path d="M0 0 C1.22596039 3.67788118 0.84310077 4.78449613 0 9 C-0.33 13.95 -0.66 18.9 -1 24 C10.22 24 21.44 24 33 24 C33 21.03 33 18.06 33 15 C33.66 13.68 34.32 12.36 35 11 C36.63545738 16.45152459 35.63230332 19.67696679 35 26 C22.46 26 9.92 26 -3 26 C-3 3 -3 3 0 0 Z " fill="#122657" transform="translate(381,455)"/>
<path d="M0 0 C0.66 0.66 1.32 1.32 2 2 C1.72285156 2.82242188 1.44570313 3.64484375 1.16015625 4.4921875 C-1.0793683 11.39406743 -2.76533974 17.74593706 -3 25 C-3.03996094 26.21558594 -3.07992188 27.43117188 -3.12109375 28.68359375 C-3.30762864 37.49361504 -3.09598171 46.39612445 -1 55 C-0.34 55.33 0.32 55.66 1 56 C1 58.64 1 61.28 1 64 C0.34 64 -0.32 64 -1 64 C-8.27666939 46.80059963 -9.15402614 22.57701514 -2.22509766 5.03857422 C-1.5052316 3.34957631 -0.75527922 1.6734618 0 0 Z " fill="#112856" transform="translate(381,515)"/>
<path d="M0 0 C1.00289063 0.10183594 2.00578125 0.20367188 3.0390625 0.30859375 C3.80992187 0.39238281 4.58078125 0.47617187 5.375 0.5625 C5.375 1.5525 5.375 2.5425 5.375 3.5625 C4.055 3.5625 2.735 3.5625 1.375 3.5625 C1.375 10.8225 1.375 18.0825 1.375 25.5625 C0.385 25.8925 -0.605 26.2225 -1.625 26.5625 C-3.625 24.5625 -3.625 24.5625 -3.85546875 21.296875 C-3.84128906 19.98203125 -3.82710938 18.6671875 -3.8125 17.3125 C-3.80605469 16.00796875 -3.79960937 14.7034375 -3.79296875 13.359375 C-3.64434003 9.99967471 -3.26484932 6.8590037 -2.625 3.5625 C-4.275 3.5625 -5.925 3.5625 -7.625 3.5625 C-7.625 2.5725 -7.625 1.5825 -7.625 0.5625 C-4.89657939 -0.80171031 -3.01546682 -0.31557211 0 0 Z " fill="#020103" transform="translate(351.625,647.4375)"/>
<path d="M0 0 C1.98 0.495 1.98 0.495 4 1 C4.33 9.25 4.66 17.5 5 26 C3.35 26.66 1.7 27.32 0 28 C-1.77449594 26.22550406 -1.13030072 23.64982739 -1.1328125 21.25 C-1.13410156 20.0846875 -1.13539063 18.919375 -1.13671875 17.71875 C-1.13285156 16.4915625 -1.12898437 15.264375 -1.125 14 C-1.12886719 12.7728125 -1.13273438 11.545625 -1.13671875 10.28125 C-1.13542969 9.1159375 -1.13414062 7.950625 -1.1328125 6.75 C-1.13168457 5.67234375 -1.13055664 4.5946875 -1.12939453 3.484375 C-1 1 -1 1 0 0 Z " fill="#040102" transform="translate(710,616)"/>
<path d="M0 0 C1.32 0 2.64 0 4 0 C4 7.26 4 14.52 4 22 C5.98 22 7.96 22 10 22 C10.33 22.99 10.66 23.98 11 25 C7.09145257 25.91965822 4.17664661 26 0 26 C0 17.42 0 8.84 0 0 Z " fill="#030203" transform="translate(299,616)"/>
<path d="M0 0 C0 0.33 0 0.66 0 1 C-0.64437012 1.06993164 -1.28874023 1.13986328 -1.95263672 1.21191406 C-4.92858806 1.54334499 -7.90158747 1.89654287 -10.875 2.25 C-11.88820313 2.35957031 -12.90140625 2.46914063 -13.9453125 2.58203125 C-24.56381651 3.87531058 -33.80510184 6.72752493 -41 15 C-42.62743578 17.62504473 -43.79555332 20.13943912 -45 23 C-45.66 22.01 -46.32 21.02 -47 20 C-41.01255601 10.25447946 -34.71111834 3.98706443 -23.31640625 1.05078125 C-15.34727743 -0.69515634 -8.12512517 -1.4287826 0 0 Z " fill="#152C58" transform="translate(428,431)"/>
<path d="M0 0 C1.32 0 2.64 0 4 0 C4 8.58 4 17.16 4 26 C2.68 25.67 1.36 25.34 0 25 C0 16.75 0 8.5 0 0 Z " fill="#030203" transform="translate(299,648)"/>
<path d="M0 0 C0.6796875 1.78125 0.6796875 1.78125 1 4 C-2.55116557 9.66199825 -8.65805655 13.33772422 -15 15 C-28.6426146 16.9049236 -28.6426146 16.9049236 -33 14 C-31.08661988 12.08661988 -27.54873731 12.73119739 -25 12.625 C-17.33441799 12.2170533 -10.72583256 10.75728813 -4 7 C-2.83333333 5.08333333 -2.83333333 5.08333333 -2 3 C-1.34 2.01 -0.68 1.02 0 0 Z " fill="#162454" transform="translate(572,580)"/>
<path d="M0 0 C0 0.66 0 1.32 0 2 C-0.9178125 2.07476562 -1.835625 2.14953125 -2.78125 2.2265625 C-10.10551176 3.01130483 -14.8361441 3.87785486 -20.37890625 8.80078125 C-22 10 -22 10 -25 9.875 C-25.99 9.441875 -25.99 9.441875 -27 9 C-24.11267777 3.61033184 -18.0930098 1.95169532 -12.5625 0.25 C-8.38017396 -0.15803181 -4.19813693 -0.0733655 0 0 Z " fill="#223467" transform="translate(552,430)"/>
<path d="M0 0 C0.33 0 0.66 0 1 0 C1.32297455 6.05278224 1.52333984 10.78023727 -2 16 C-5.31371 18.20914 -6.3446021 18.22481553 -10.1875 18.125 C-11.08855469 18.10695313 -11.98960937 18.08890625 -12.91796875 18.0703125 C-13.60503906 18.04710937 -14.29210937 18.02390625 -15 18 C-15.33 16.35 -15.66 14.7 -16 13 C-15.13375 13.350625 -14.2675 13.70125 -13.375 14.0625 C-9.57311714 15.11857857 -7.67948888 15.47179555 -4 14 C-1.42783799 9.8027899 -0.60300678 4.82405426 0 0 Z " fill="#172A56" transform="translate(541,548)"/>
<path d="M0 0 C4.96215269 8.57099102 1.63155875 22.38000688 1 32 C0.34 31.67 -0.32 31.34 -1 31 C-1.02473868 27.06731133 -1.04287835 23.13465287 -1.05493164 19.2019043 C-1.06242729 17.20685232 -1.07513345 15.21182214 -1.08789062 13.21679688 C-1.09111328 11.96318359 -1.09433594 10.70957031 -1.09765625 9.41796875 C-1.10289307 8.26063232 -1.10812988 7.1032959 -1.11352539 5.91088867 C-1 3 -1 3 0 0 Z " fill="#1A2D5E" transform="translate(369,561)"/>
<path d="M0 0 C3.37673677 4.50231569 3.37673677 4.50231569 3.328125 8.1171875 C3.32296875 8.88933594 3.3178125 9.66148437 3.3125 10.45703125 C3.291875 11.25496094 3.27125 12.05289063 3.25 12.875 C3.24484375 13.66519531 3.2396875 14.45539062 3.234375 15.26953125 C3.17660045 19.60984434 2.8515162 23.72868487 2 28 C1.34 27.67 0.68 27.34 0 27 C0 18.09 0 9.18 0 0 Z " fill="#151F4B" transform="translate(736,565)"/>
<path d="M0 0 C6.7982991 2.2845608 10.77664084 6.66680356 14.78515625 12.40234375 C16.21408999 15.45778084 16.2281196 17.66557091 16 21 C13.57244264 18.57244264 12.42454809 16.10810492 11 13 C11 12.34 11 11.68 11 11 C10.34 11 9.68 11 9 11 C9 10.01 9 9.02 9 8 C8.01 8 7.02 8 6 8 C6 7.01 6 6.02 6 5 C5.05125 4.71125 4.1025 4.4225 3.125 4.125 C0 3 0 3 -2 1 C-1.34 0.67 -0.68 0.34 0 0 Z " fill="#232E5F" transform="translate(719,432)"/>
<path d="M0 0 C1.859146 1.7661887 3.32217422 3.45548769 4.8125 5.5625 C7.36881424 8.41096444 9.33574805 9.08393701 13 10 C13 10.66 13 11.32 13 12 C15.31 12.33 17.62 12.66 20 13 C20.33 13.99 20.66 14.98 21 16 C10.76310042 14.2711014 5.49791083 9.92053036 -1 2 C-0.67 1.34 -0.34 0.68 0 0 Z " fill="#132256" transform="translate(382,580)"/>
<path d="M0 0 C2 3 2 3 1 15 C-9.23 15 -19.46 15 -30 15 C-30 14.67 -30 14.34 -30 14 C-20.43 13.67 -10.86 13.34 -1 13 C-1 10.03 -1 7.06 -1 4 C-0.67 2.68 -0.34 1.36 0 0 Z " fill="#1B2C63" transform="translate(415,466)"/>
<path d="M0 0 C0.66 0 1.32 0 2 0 C2.66964286 7.76785714 2.66964286 7.76785714 -0.0625 11.5 C-3 14 -3 14 -6.5625 14.5625 C-10.01347538 13.99779494 -11.5141248 13.38644019 -14 11 C-13.67 10.01 -13.34 9.02 -13 8 C-12.46375 8.495 -11.9275 8.99 -11.375 9.5 C-8.40641555 11.37489544 -6.44687573 11.23501425 -3 11 C-0.87953208 7.46588679 -0.46800711 4.05606165 0 0 Z " fill="#142652" transform="translate(430,552)"/>
<path d="M0 0 C0.99 0.66 1.98 1.32 3 2 C1.9275 2.53625 0.855 3.0725 -0.25 3.625 C-5.94789518 6.8875045 -8.25232714 12.229887 -11 18 C-11.33 17.34 -11.66 16.68 -12 16 C-12.66 16 -13.32 16 -14 16 C-14 15.01 -14 14.02 -14 13 C-13.01 13 -12.02 13 -11 13 C-10.71125 12.236875 -10.4225 11.47375 -10.125 10.6875 C-9 8 -9 8 -7 5 C-6.34 5 -5.68 5 -5 5 C-5 4.34 -5 3.68 -5 3 C-2.5 1.375 -2.5 1.375 0 0 Z " fill="#142252" transform="translate(695,432)"/>
<path d="M0 0 C0.99 0.33 1.98 0.66 3 1 C2.319375 1.53625 1.63875 2.0725 0.9375 2.625 C-0.031875 3.40875 -1.00125 4.1925 -2 5 C-2.5775 5.43570312 -3.155 5.87140625 -3.75 6.3203125 C-8.44585438 10.02437005 -10.63346223 13.50963236 -13 19 C-13.66 18.01 -14.32 17.02 -15 16 C-10.74007162 9.06628678 -6.79222395 4.5281493 0 0 Z " fill="#13235E" transform="translate(396,435)"/>
<path d="M0 0 C0.97582031 0.00902344 1.95164062 0.01804687 2.95703125 0.02734375 C3.69308594 0.03894531 4.42914062 0.05054688 5.1875 0.0625 C5.1875 0.7225 5.1875 1.3825 5.1875 2.0625 C6.1775 2.3925 7.1675 2.7225 8.1875 3.0625 C1.5875 3.0625 -5.0125 3.0625 -11.8125 3.0625 C-11.4825 2.4025 -11.1525 1.7425 -10.8125 1.0625 C-7.19111734 0.03976493 -3.74515244 -0.04512232 0 0 Z " fill="#1F325D" transform="translate(707.8125,429.9375)"/>
<path d="M0 0 C-2 2 -2 2 -4.875 3.3125 C-9.92303216 6.03843737 -12.16791264 9.65641188 -14 15 C-14.66 15 -15.32 15 -16 15 C-15.54271062 10.08413917 -14.50084733 7.50084733 -11 4 C-3.93622291 -1.3120743 -3.93622291 -1.3120743 0 0 Z " fill="#162358" transform="translate(431,509)"/>
<path d="M0 0 C6.75 -0.125 6.75 -0.125 9 1 C9 4.3 9 7.6 9 11 C8.01 11.33 7.02 11.66 6 12 C6 8.7 6 5.4 6 2 C4.02 2 2.04 2 0 2 C0 1.34 0 0.68 0 0 Z " fill="#233564" transform="translate(674,434)"/>
<path d="M0 0 C4.875 0.875 4.875 0.875 6 2 C6.07205511 3.68608966 6.08386068 5.37500659 6.0625 7.0625 C6.05347656 7.98160156 6.04445313 8.90070312 6.03515625 9.84765625 C6.02355469 10.55792969 6.01195312 11.26820313 6 12 C5.34 12 4.68 12 4 12 C3.87625 11.195625 3.7525 10.39125 3.625 9.5625 C3.315625 8.2940625 3.315625 8.2940625 3 7 C2.34 6.67 1.68 6.34 1 6 C0.375 2.9375 0.375 2.9375 0 0 Z " fill="#18295B" transform="translate(427,576)"/>
<path d="M0 0 C5.35220501 2.49154371 9.70923053 4.92376901 14 9 C14 9.66 14 10.32 14 11 C14.99 11.33 15.98 11.66 17 12 C16.34 12.66 15.68 13.32 15 14 C14.59910156 13.55269531 14.19820313 13.10539062 13.78515625 12.64453125 C9.34579639 7.92330728 4.80128351 4.85459982 -1 2 C-0.67 1.34 -0.34 0.68 0 0 Z " fill="#122357" transform="translate(447,434)"/>
<path d="M0 0 C0.33 0 0.66 0 1 0 C1.66 6.93 2.32 13.86 3 21 C2.34 21.33 1.68 21.66 1 22 C-0.20029908 19.59940183 -0.11459743 18.10639351 -0.09765625 15.4296875 C-0.09443359 14.53378906 -0.09121094 13.63789062 -0.08789062 12.71484375 C-0.07951172 11.77769531 -0.07113281 10.84054687 -0.0625 9.875 C-0.05798828 8.93011719 -0.05347656 7.98523438 -0.04882812 7.01171875 C-0.03702357 4.67441613 -0.02055759 2.33723939 0 0 Z " fill="#1F2C63" transform="translate(523,538)"/>
<path d="M0 0 C1.875 1.5 1.875 1.5 3 3 C1 4 1 4 -2.4375 3.375 C-5.85976744 2.63500532 -5.85976744 2.63500532 -7.8125 4.1875 C-9.04580213 6.06990851 -10.07951712 7.94661511 -11 10 C-11.75 8.3125 -11.75 8.3125 -12 6 C-8.48663946 0.79053438 -6.27260264 -0.5120492 0 0 Z " fill="#111F4E" transform="translate(536,460)"/>
<path d="M0 0 C1.93798521 0.30947671 3.87537426 0.62268834 5.8125 0.9375 C6.89144531 1.11152344 7.97039062 1.28554688 9.08203125 1.46484375 C12 2 12 2 15 3 C15 3.66 15 4.32 15 5 C9.72 4.34 4.44 3.68 -1 3 C-0.67 2.01 -0.34 1.02 0 0 Z " fill="#152959" transform="translate(430,430)"/>
<path d="M0 0 C3 2 3 2 3.80078125 4.4609375 C3.96964844 5.42257812 4.13851562 6.38421875 4.3125 7.375 C4.49425781 8.33148438 4.67601562 9.28796875 4.86328125 10.2734375 C5.0109376 13.21812707 4.55515068 14.54204649 3 17 C2.49622232 14.73000175 1.99709981 12.45896997 1.5 10.1875 C1.08234375 8.29064453 1.08234375 8.29064453 0.65625 6.35546875 C0 3 0 3 0 0 Z " fill="#142B53" transform="translate(575,451)"/>
<path d="M0 0 C3.6127551 2.6363348 6.10524168 4.91131099 8 9 C8.1875 11.8125 8.1875 11.8125 8 14 C5.84622436 11.37801226 4.59927826 9.35595828 4 6 C3.34 6 2.68 6 2 6 C0.375 3.5 0.375 3.5 -1 1 C-0.67 0.67 -0.34 0.34 0 0 Z " fill="#1B2955" transform="translate(567,436)"/>
<path d="M0 0 C0 0.66 0 1.32 0 2 C-4.95 2.33 -9.9 2.66 -15 3 C-15 2.34 -15 1.68 -15 1 C-10.03926578 -0.32286246 -5.08888488 -0.08893197 0 0 Z " fill="#162651" transform="translate(552,430)"/>
<path d="M0 0 C1.32 0.33 2.64 0.66 4 1 C4 1.66 4 2.32 4 3 C6.31 3.33 8.62 3.66 11 4 C11.33 4.99 11.66 5.98 12 7 C10.53984709 6.71758359 9.08190207 6.42373386 7.625 6.125 C6.81289063 5.96257813 6.00078125 5.80015625 5.1640625 5.6328125 C3 5 3 5 1 3 C0.67 2.01 0.34 1.02 0 0 Z " fill="#1D2B5D" transform="translate(391,589)"/>
<path d="M0 0 C0.66 0.33 1.32 0.66 2 1 C0.73058503 4.91402949 -0.51167694 6.79072873 -4 9 C-4.66 8.67 -5.32 8.34 -6 8 C-5.625 5.5625 -5.625 5.5625 -5 3 C-4.34 2.67 -3.68 2.34 -3 2 C-2.67 2.33 -2.34 2.66 -2 3 C-1.34 2.01 -0.68 1.02 0 0 Z " fill="#223467" transform="translate(388,509)"/>
<path d="M0 0 C0.99 0 1.98 0 3 0 C4.78409802 3.06246747 5.22880021 5.22079273 5.125 8.75 C5.10695313 9.54921875 5.08890625 10.3484375 5.0703125 11.171875 C5.03550781 12.07679688 5.03550781 12.07679688 5 13 C4.67 13 4.34 13 4 13 C3.87625 12.21625 3.7525 11.4325 3.625 10.625 C3.20882007 7.85942178 3.20882007 7.85942178 1 6 C0.60235737 4.01178687 0.26224651 2.01055661 0 0 Z " fill="#192C5C" transform="translate(538,464)"/>
<path d="M0 0 C2.1640625 0.99609375 2.1640625 0.99609375 4.625 2.4375 C5.85089844 3.14712891 5.85089844 3.14712891 7.1015625 3.87109375 C7.72804688 4.24363281 8.35453125 4.61617188 9 5 C9 5.99 9 6.98 9 8 C8.01 8 7.02 8 6 8 C6 7.01 6 6.02 6 5 C5.05125 4.71125 4.1025 4.4225 3.125 4.125 C0 3 0 3 -2 1 C-1.34 0.67 -0.68 0.34 0 0 Z " fill="#122B53" transform="translate(719,432)"/>
<path d="M0 0 C3.63 0.33 7.26 0.66 11 1 C11 1.33 11 1.66 11 2 C5.63904667 3.12862175 0.44693314 3.09688221 -5 3 C-5 2.67 -5 2.34 -5 2 C-3.35 2 -1.7 2 0 2 C0 1.34 0 0.68 0 0 Z " fill="#12214D" transform="translate(417,430)"/>
<path d="M0 0 C3.3 0.99 6.6 1.98 10 3 C10 3.33 10 3.66 10 4 C5.545 4.495 5.545 4.495 1 5 C0.67 3.35 0.34 1.7 0 0 Z " fill="#1F2F5B" transform="translate(525,561)"/>
<path d="M0 0 C0.66 0.33 1.32 0.66 2 1 C1.1875 2.9375 1.1875 2.9375 0 5 C-0.99 5.33 -1.98 5.66 -3 6 C-4.20882096 8.00016466 -4.20882096 8.00016466 -5 10 C-5.66 9.67 -6.32 9.34 -7 9 C-5.03681826 5.46627288 -2.95929119 2.75520215 0 0 Z " fill="#162959" transform="translate(391,504)"/>
<path d="M0 0 C2.45234885 0.98093954 3.7809268 1.68703828 5.3125 3.875 C6.1132654 6.35009306 5.86325845 7.58287634 5 10 C4.7525 9.443125 4.505 8.88625 4.25 8.3125 C2.78393985 5.60028873 0.97010529 3.36412635 -1 1 C-0.67 0.67 -0.34 0.34 0 0 Z " fill="#0F1C45" transform="translate(426,460)"/>
<path d="M0 0 C0.66 0.66 1.32 1.32 2 2 C-2.625 5 -2.625 5 -6 5 C-6.33 5.99 -6.66 6.98 -7 8 C-7.66 7.34 -8.32 6.68 -9 6 C-6.45543849 3.03134491 -3.51005335 1.6380249 0 0 Z " fill="#111E4E" transform="translate(534,432)"/>
<path d="M0 0 C0 0.66 0 1.32 0 2 C-3.82320557 3.42258812 -6.91281305 4.24042276 -11 4 C-7.88789178 0.88789178 -4.34860953 0 0 0 Z " fill="#162A5E" transform="translate(420,493)"/>
<path d="M0 0 C2.04296875 0.4609375 2.04296875 0.4609375 4.1875 1.375 C4.90292969 1.67148437 5.61835937 1.96796875 6.35546875 2.2734375 C7.16951172 2.63308594 7.16951172 2.63308594 8 3 C7.67 3.99 7.34 4.98 7 6 C2.05 4.02 2.05 4.02 -3 2 C-2.01 1.34 -1.02 0.68 0 0 Z " fill="#112457" transform="translate(557,431)"/>
<path d="M0 0 C0.66 0 1.32 0 2 0 C2 2.64 2 5.28 2 8 C1.34 8 0.68 8 0 8 C-0.79953138 4.71303767 -1.09658936 3.28976808 0 0 Z " fill="#192B5B" transform="translate(380,571)"/>
<path d="M0 0 C1.32 0.66 2.64 1.32 4 2 C3.34 3.32 2.68 4.64 2 6 C1.01 6 0.02 6 -1 6 C-0.67 4.02 -0.34 2.04 0 0 Z " fill="#253866" transform="translate(523,558)"/>
<path d="M0 0 C1.10844919 3.32534757 0.84454356 5.62182575 0 9 C-0.66 9 -1.32 9 -2 9 C-2.25 3.375 -2.25 3.375 0 0 Z " fill="#152B56" transform="translate(381,455)"/>
<path d="M0 0 C1.32 1.65 2.64 3.3 4 5 C3.67 5.66 3.34 6.32 3 7 C1.68 6.34 0.36 5.68 -1 5 C-0.67 3.35 -0.34 1.7 0 0 Z " fill="#212F61" transform="translate(522,434)"/>
<path d="" fill="#000000" transform="translate(0,0)"/>
<path d="" fill="#000000" transform="translate(0,0)"/>
<path d="" fill="#000000" transform="translate(0,0)"/>
<path d="" fill="#000000" transform="translate(0,0)"/>
<path d="" fill="#000000" transform="translate(0,0)"/>
<path d="" fill="#000000" transform="translate(0,0)"/>
<path d="" fill="#000000" transform="translate(0,0)"/>
<path d="" fill="#000000" transform="translate(0,0)"/>
<path d="" fill="#000000" transform="translate(0,0)"/>
<path d="" fill="#000000" transform="translate(0,0)"/>
<path d="" fill="#000000" transform="translate(0,0)"/>
<path d="" fill="#000000" transform="translate(0,0)"/>
<path d="" fill="#000000" transform="translate(0,0)"/>
<path d="" fill="#000000" transform="translate(0,0)"/>
<path d="" fill="#000000" transform="translate(0,0)"/>
<path d="" fill="#000000" transform="translate(0,0)"/>
<path d="" fill="#000000" transform="translate(0,0)"/>
<path d="" fill="#000000" transform="translate(0,0)"/>
<path d="" fill="#330033" transform="translate(0,0)"/>
</svg>
