<?xml version="1.0" standalone="no"?>
<!DOCTYPE svg PUBLIC "-//W3C//DTD SVG 20010904//EN"
 "http://www.w3.org/TR/2001/REC-SVG-20010904/DTD/svg10.dtd">
<svg version="1.0" xmlns="http://www.w3.org/2000/svg"
 width="1080.000000pt" height="1080.000000pt" viewBox="0 0 1080.000000 1080.000000"
 preserveAspectRatio="xMidYMid meet">

<g transform="translate(0.000000,1080.000000) scale(0.100000,-0.100000)"
fill="#000000" stroke="none">
<path d="M2940 5810 l0 -940 375 0 375 0 0 160 0 160 -190 0 -190 0 0 780 0
780 -185 0 -185 0 0 -940z"/>
<path d="M5930 5810 l0 -940 180 0 180 0 0 940 0 940 -180 0 -180 0 0 -940z"/>
<path d="M4128 6479 c-107 -14 -176 -45 -234 -103 -69 -68 -94 -138 -101 -273
l-6 -103 180 0 180 0 6 71 c7 79 25 116 63 125 71 18 104 -41 104 -188 l0
-104 -102 -33 c-149 -49 -272 -104 -321 -144 -92 -75 -130 -194 -130 -402 1
-316 79 -451 271 -471 112 -12 205 38 254 136 l28 55 0 -87 0 -88 190 0 190 0
0 629 c0 383 -4 649 -10 682 -28 145 -138 254 -292 288 -69 16 -196 21 -270
10z m190 -1013 c-3 -240 -4 -256 -24 -283 -37 -50 -106 -43 -130 12 -17 41
-20 329 -4 387 6 20 25 51 41 68 29 28 93 69 112 70 5 0 7 -114 5 -254z"/>
<path d="M5388 6477 c-57 -13 -70 -21 -120 -66 l-28 -25 0 42 0 42 -195 0
-195 0 0 -960 0 -960 195 0 195 0 0 192 c0 183 1 190 18 175 10 -9 39 -26 65
-37 54 -24 176 -29 249 -10 92 24 160 98 192 210 26 89 39 366 33 730 -5 354
-12 413 -58 519 -52 122 -196 182 -351 148z m-18 -297 c37 -20 40 -60 40 -510
0 -450 -3 -490 -40 -510 -34 -18 -75 -11 -101 16 l-24 26 -3 446 c-1 246 0
456 2 468 3 11 15 33 27 47 22 29 64 36 99 17z"/>
<path d="M7005 6481 c-78 -20 -124 -63 -164 -151 l-21 -45 0 93 0 92 -190 0
-190 0 0 -800 0 -800 190 0 190 0 1 613 c0 447 3 621 12 646 28 80 114 92 149
21 17 -32 18 -85 18 -657 l0 -623 185 0 186 0 -3 688 c-3 687 -3 687 -26 743
-30 74 -81 132 -139 157 -54 23 -153 35 -198 23z"/>
<path d="M7510 5030 l0 -160 190 0 190 0 0 160 0 160 -190 0 -190 0 0 -160z"/>
<path d="M2990 4515 l0 -125 50 0 c28 0 50 5 50 10 0 6 -13 10 -30 10 l-30 0
0 115 c0 108 -1 115 -20 115 -19 0 -20 -7 -20 -125z"/>
<path d="M3161 4537 c-12 -57 -24 -113 -28 -125 -9 -37 23 -26 33 11 8 25 15
32 34 32 20 0 26 -6 30 -30 3 -17 12 -31 21 -33 15 -3 13 12 -10 123 -20 98
-29 125 -42 125 -13 0 -21 -23 -38 -103z m53 -19 c6 -34 5 -38 -15 -38 -19 0
-21 4 -15 31 3 17 6 41 6 53 1 30 16 2 24 -46z"/>
<path d="M3320 4515 c0 -118 1 -125 20 -125 18 0 20 7 20 60 0 59 0 60 28 60
38 0 52 17 52 61 0 50 -21 69 -76 69 l-44 0 0 -125z m81 95 c6 0 9 -17 7 -37
-2 -31 -7 -39 -25 -41 -21 -3 -23 1 -23 43 0 39 3 46 16 41 9 -3 20 -6 25 -6z"/>
<path d="M3525 4628 c-8 -26 -45 -209 -45 -223 0 -8 7 -15 15 -15 8 0 15 9 15
19 0 34 12 51 36 51 19 0 24 -7 30 -35 3 -20 12 -35 20 -35 18 0 18 -2 -11
130 -14 62 -25 115 -25 117 0 9 -31 1 -35 -9z m34 -120 c1 -22 -4 -28 -20 -28
-15 0 -19 5 -15 18 2 9 8 33 12 52 7 34 8 34 15 10 4 -14 7 -37 8 -52z"/>
<path d="M3670 4516 c0 -104 3 -126 15 -126 11 0 15 18 17 78 l3 77 31 -75
c18 -41 37 -76 43 -78 8 -3 11 34 11 122 0 104 -3 126 -15 126 -11 0 -15 -18
-17 -77 l-3 -78 -31 75 c-18 41 -37 76 -43 78 -8 3 -11 -34 -11 -122z"/>
<path d="M3882 4624 c-20 -14 -22 -23 -22 -105 0 -76 3 -92 20 -109 24 -24 47
-25 72 -3 17 15 18 15 18 0 0 -10 5 -17 10 -17 6 0 10 27 10 60 l0 60 -30 0
c-16 0 -30 -4 -30 -10 0 -5 7 -10 15 -10 9 0 15 -9 15 -22 0 -34 -15 -50 -41
-46 -23 3 -24 6 -24 93 0 90 0 90 26 93 21 2 28 -2 33 -22 3 -15 13 -26 21
-26 18 0 18 -1 4 38 -9 27 -32 41 -64 42 -6 0 -21 -7 -33 -16z"/>
<path d="M4071 4537 c-12 -57 -24 -113 -28 -125 -9 -37 23 -26 33 11 8 25 15
32 34 32 20 0 26 -6 30 -30 3 -17 12 -31 21 -33 15 -3 13 12 -10 123 -20 98
-29 125 -42 125 -13 0 -21 -23 -38 -103z m53 -19 c6 -34 5 -38 -15 -38 -19 0
-21 4 -15 31 3 17 6 41 6 53 1 30 16 2 24 -46z"/>
<path d="M4230 4515 c0 -103 3 -125 15 -125 11 0 15 18 17 83 l3 82 34 -82
c19 -46 38 -83 43 -83 4 0 8 56 8 125 0 140 -17 174 -22 43 l-3 -83 -34 83
c-50 118 -61 110 -61 -43z"/>
<path d="M6963 4620 c-19 -8 -23 -17 -23 -49 0 -35 5 -44 46 -77 35 -29 44
-43 42 -63 -4 -35 -51 -38 -56 -3 -5 33 -34 29 -30 -5 4 -37 46 -61 85 -47 24
8 28 16 31 50 3 38 -1 45 -42 85 -53 49 -62 89 -22 89 16 0 27 -7 31 -20 7
-23 35 -27 35 -5 0 21 -36 55 -57 54 -10 0 -28 -4 -40 -9z"/>
<path d="M7100 4500 c0 -109 2 -130 15 -130 13 0 15 21 15 130 0 109 -2 130
-15 130 -13 0 -15 -21 -15 -130z"/>
<path d="M7180 4500 c0 -109 2 -130 15 -130 12 0 15 17 15 88 l1 87 37 -87
c20 -48 43 -88 50 -88 9 0 12 33 12 130 0 109 -2 130 -15 130 -12 0 -15 -16
-16 -82 l-1 -83 -39 83 c-21 45 -43 82 -49 82 -6 0 -10 -49 -10 -130z"/>
<path d="M7370 4610 c-17 -17 -20 -33 -20 -110 0 -77 3 -93 20 -110 41 -41
110 -10 110 50 0 42 -28 40 -32 -2 -2 -26 -8 -34 -27 -36 -33 -5 -41 12 -41
98 0 86 8 103 41 98 18 -2 25 -10 27 -30 4 -36 32 -38 32 -3 0 32 -33 65 -65
65 -14 0 -34 -9 -45 -20z"/>
<path d="M7520 4500 l0 -130 50 0 c55 0 69 17 18 22 -32 3 -33 4 -33 53 0 47
2 50 28 53 37 4 35 22 -3 22 -28 0 -30 2 -30 40 0 39 1 40 35 40 24 0 35 5 35
15 0 11 -12 15 -50 15 l-50 0 0 -130z"/>
<path d="M3000 4195 c0 -104 2 -125 15 -125 13 0 15 21 15 125 0 104 -2 125
-15 125 -13 0 -15 -21 -15 -125z"/>
<path d="M3100 4196 c0 -104 3 -126 15 -126 11 0 15 18 17 78 l3 77 31 -75
c18 -41 37 -76 43 -78 8 -3 11 34 11 122 0 104 -3 126 -15 126 -11 0 -15 -18
-17 -77 l-3 -78 -31 75 c-18 41 -37 76 -43 78 -8 3 -11 -34 -11 -122z"/>
<path d="M3296 4298 c-25 -35 -19 -55 29 -107 50 -54 60 -95 23 -89 -13 2 -27
13 -33 26 -10 22 -26 25 -32 6 -6 -17 37 -64 58 -64 39 0 59 19 59 56 0 29 -9
45 -45 82 -49 49 -54 75 -17 80 17 3 25 -2 29 -18 6 -21 24 -23 31 -2 5 17
-36 52 -62 52 -14 0 -32 -10 -40 -22z"/>
<path d="M3450 4310 c0 -5 9 -10 20 -10 19 0 20 -7 20 -115 0 -96 3 -115 15
-115 12 0 15 19 15 111 0 102 2 111 20 116 39 10 19 23 -35 23 -30 0 -55 -4
-55 -10z"/>
<path d="M3655 4308 c-8 -26 -45 -209 -45 -223 0 -8 7 -15 15 -15 8 0 15 9 15
19 0 34 12 51 36 51 19 0 24 -7 30 -35 3 -20 12 -35 20 -35 18 0 18 -2 -11
130 -14 62 -25 115 -25 117 0 9 -31 1 -35 -9z m34 -120 c1 -22 -4 -28 -20 -28
-15 0 -19 5 -15 18 2 9 8 33 12 52 7 34 8 34 15 10 4 -14 7 -37 8 -52z"/>
<path d="M3800 4196 c0 -104 3 -126 15 -126 11 0 15 18 17 78 l3 77 31 -75
c18 -41 37 -76 43 -78 8 -3 11 34 11 122 0 104 -3 126 -15 126 -11 0 -15 -18
-17 -77 l-3 -78 -31 75 c-18 41 -37 76 -43 78 -8 3 -11 -34 -11 -122z"/>
<path d="M6904 4311 c-21 -9 -54 -48 -54 -63 0 -4 9 -12 21 -18 17 -10 23 -7
40 14 26 33 46 33 60 2 14 -30 -8 -69 -75 -136 -25 -24 -46 -48 -46 -52 0 -4
43 -8 95 -8 95 0 95 0 95 25 0 23 -4 25 -47 25 l-48 1 28 23 c67 55 84 115 45
161 -25 28 -79 40 -114 26z"/>
<path d="M7128 4305 c-16 -9 -33 -32 -43 -59 -42 -110 29 -220 121 -189 86 29
100 195 20 244 -37 22 -61 23 -98 4z m76 -57 c31 -45 11 -148 -29 -148 -23 0
-45 42 -45 85 0 43 22 85 45 85 8 0 21 -10 29 -22z"/>
<path d="M7361 4306 c-13 -7 -30 -24 -37 -37 -11 -21 -10 -25 9 -35 18 -10 24
-8 40 12 21 28 39 30 57 9 21 -25 2 -64 -61 -130 -32 -34 -59 -65 -59 -68 0
-4 45 -7 100 -7 l100 0 0 25 c0 23 -4 25 -47 25 l-47 0 31 33 c38 40 53 68 53
102 0 39 -16 62 -51 74 -41 14 -58 13 -88 -3z"/>
<path d="M7565 4278 c-3 -24 -8 -55 -11 -69 -5 -25 -3 -26 34 -25 61 1 95 -42
57 -74 -16 -13 -65 -6 -65 10 0 6 -10 5 -25 -2 l-25 -11 21 -23 c29 -31 69
-38 113 -20 40 16 50 34 50 83 0 40 -27 71 -69 79 -26 5 -32 10 -28 25 4 15
14 19 44 19 35 0 39 3 39 25 0 24 -2 25 -64 25 l-64 0 -7 -42z"/>
</g>
</svg>
